<?xml version="1.0" encoding="utf-8"?>
<!-- Generator: Adobe Illustrator 21.0.0, SVG Export Plug-In . SVG Version: 6.00 Build 0)  -->
<svg version="1.1"
	 id="svg8" inkscape:version="0.92.1 r" sodipodi:docname="plakat.svg" xmlns:cc="http://creativecommons.org/ns#" xmlns:dc="http://purl.org/dc/elements/1.1/" xmlns:inkscape="http://www.inkscape.org/namespaces/inkscape" xmlns:rdf="http://www.w3.org/1999/02/22-rdf-syntax-ns#" xmlns:sodipodi="http://sodipodi.sourceforge.net/DTD/sodipodi-0.dtd" xmlns:svg="http://www.w3.org/2000/svg"
	 xmlns="http://www.w3.org/2000/svg" xmlns:xlink="http://www.w3.org/1999/xlink" x="0px" y="0px" viewBox="0 0 595.3 841.9"
	 style="enable-background:new 0 0 595.3 841.9;" xml:space="preserve">
<style type="text/css">
	
		.st0{fill:#243E92;stroke:#000000;stroke-width:0.3905;stroke-linecap:square;stroke-linejoin:bevel;stroke-opacity:0.7791;stroke-dasharray:1.1716,0.3905;}
	.st1{fill:#243E92;}
	.st2{fill:#FECE0A;}
	.st3{font-family:'Arial-BoldMT';}
	.st4{font-size:69.109px;}
	
		.st5{fill:none;stroke:#000000;stroke-width:0.3905;stroke-linecap:square;stroke-linejoin:bevel;stroke-opacity:0.7791;stroke-dasharray:1.1716,0.3905;}
	.st6{fill:#FFFFFF;stroke:#000000;stroke-width:0.8;stroke-linejoin:round;}
	.st7{fill:none;stroke:#000000;stroke-width:0.8;stroke-linecap:square;stroke-linejoin:round;stroke-opacity:0.7791;}
	.st8{fill:#FFFFFF;stroke:#000000;stroke-width:0.8;stroke-linecap:square;stroke-linejoin:round;stroke-opacity:0.7791;}
	.st9{fill:#FFFFFF;stroke:#000000;stroke-width:0.2646;}
	.st10{font-size:13.0957px;}
	.st11{enable-background:new    ;}
	.st12{fill:none;stroke:#000000;stroke-width:0.2488;stroke-linecap:square;stroke-linejoin:bevel;stroke-dasharray:0.7463,0.2488;}
	.st13{fill:#FFFFFF;stroke:#000000;stroke-width:0.7;}
	.st14{fill:#FFFFFF;stroke:#000000;stroke-width:0.8;}
	.st15{fill:#FFFFFF;stroke:#000000;stroke-width:0.8;stroke-linecap:square;stroke-linejoin:bevel;stroke-opacity:0.7791;}
	.st16{font-size:24px;}
	.st17{font-size:16.3015px;}
	.st18{font-size:14.7018px;}
</style>
<sodipodi:namedview  bordercolor="#666666" borderopacity="1.0" id="base" inkscape:current-layer="layer1" inkscape:cx="535.50613" inkscape:cy="627.92292" inkscape:document-units="mm" inkscape:guide-bbox="true" inkscape:pageopacity="0.0" inkscape:pageshadow="2" inkscape:snap-global="false" inkscape:window-height="1064" inkscape:window-maximized="0" inkscape:window-width="1920" inkscape:window-x="0" inkscape:window-y="16" inkscape:zoom="0.77266601" pagecolor="#ffffff" showgrid="false" showguides="true">
	</sodipodi:namedview>
<g id="layer1" inkscape:groupmode="layer" inkscape:label="Layer 1">
	<path id="path4819" inkscape:connector-curvature="0" d="M83.4,566.4c-0.2-0.3,2.5-31.8,3.3-39.4l0.3-2.5l-2.9,0.2
		c-2.2,0.1-3.2,0-4.5-0.8c-1.9-1.2-2.1-2.4-0.4-2.8c1.5-0.4,2.7-2,2.7-3.4c0-0.8-1.1-1.6-4.1-3.2c-9.2-4.9-14.7-9.3-17-13.7
		c-1.5-2.8-1.5-6.9,0-9.7c2.8-5.3,11.8-11.1,25-16.2l6.4-2.4l-0.2-1.6c-0.1-0.9-1-4.2-1.9-7.4c-2.4-7.9-2.8-15.1-1.2-18.9
		c2.8-6.5,9.8-9.8,17-8c4.5,1.2,7.8,3.1,11.5,6.8c3.4,3.3,6.4,8.2,5.7,9c-0.2,0.2-1.7,0.7-3.2,1.1l-2.7,0.7l-0.9,6.2
		c-1.2,8.6-1.2,8.9,1,12.2c8.3,12.8,25,22.2,43.1,24.3c0.7,0.1,1.3,0.5,1.4,1c0.2,1.2-1.6,1.2-7.9-0.1
		c-16.3-3.3-30.4-12.1-38.2-23.9c-2.6-4-2.6-4.1-2.1-8.4l0.4-3.1l-3.2-0.3c-1.8-0.1-4.2-0.7-5.5-1.3c-4.7-2.1-9.1-8-9.5-12.8
		c-0.1-1.5,0-2,0.7-2.2c0.6-0.1,1,0.4,1.4,2.5c1.5,7,7.3,11.9,14.1,11.9h2.4l0.6-3.8c0.3-2.1,0.7-4,0.8-4.3c0.2-0.2,1.1-0.4,2.1-0.5
		c3.1,0,3.3-0.5,1.4-3.3c-3.5-5.2-10.2-9.7-15.4-10.5c-3.6-0.5-7,0.5-9.7,2.9c-3.2,2.8-4.2,5.2-4.2,9.8c0,3.6,0.4,5.5,3.2,16.2
		c0.7,2.8,1.2,5.4,1.1,6c-0.2,0.8-1.6,1.5-5.8,2.9c-7.1,2.5-16.3,7-20.3,10c-3.2,2.4-5.9,5.9-6.4,8.3c-1.2,5.3,4.4,11.4,16.6,18
		c5.2,2.8,5.6,3.2,5.6,4.5c0,1.8-1.3,4.9-2,4.9c-0.3,0-0.5,0.2-0.5,0.5c0,0.9,3.6,0.5,5.3-0.5c1.5-0.9,1.7-1,2-0.2
		c0.2,0.4-0.5,10-1.5,21.2c-1,11.2-1.8,20.8-1.8,21.2c0,0.8,1,0.9,12.8,0.9H111v-17c0-9.3,0.1-17.3,0.3-17.7c0.2-0.4,0.6-0.8,1-0.8
		c0.6,0,0.7,2.9,0.7,17.7v17.8h11.6h11.6l-4.2-4.5c-7-7.5-6.4-6.1-5.6-14.5c0.5-4.8,0.7-14.1,0.8-27.1c0.1-17.4,0.2-19.9,0.8-19.7
		c0.4,0.1,0.8,0.8,0.9,1.7c0.1,1.2,0.6,1.9,2,2.8c6.8,4.5,18.1,8.6,26.6,9.6c1.7,0.2,2.9,0.6,3.1,1.1c0.5,1.2-1.2,1.4-6.1,0.5
		c-6.5-1.1-14.3-3.8-20.3-7l-5-2.6l0,14.5c0,8-0.3,18.7-0.7,23.9l-0.7,9.4l3.9,4.3c6.5,7.1,7.8,8.7,7.5,9.2
		C138.9,566.8,83.7,567,83.4,566.4L83.4,566.4z"/>
	<path id="path4795" inkscape:connector-curvature="0" d="M156.5,507.2c-3.9-0.8-4.5-1-4.5-1.7c0-1.1,0.9-1.2,4.7-0.4
		c3.3,0.7,4.5,1.3,4,2.2C160.4,507.8,159.5,507.8,156.5,507.2L156.5,507.2z"/>
	<path id="path4563-3" inkscape:connector-curvature="0" d="M108.1,448.8c-1-0.6-0.5-2.3,0.8-2.5c1.3-0.2,2,1.1,1.1,2.2
		C109.3,449.3,109,449.4,108.1,448.8L108.1,448.8z"/>
	
		<path id="path5295" inkscape:connector-curvature="0" sodipodi:nodetypes="cccccccccscccccccsscccccsccssccccsccccccccsccccsacccccsccccccccccscscccsccsscccccccscccccsscsccsscccccscccccsccccsccccscscccssccsccccccccscss" d="
		M506.8,172.2c0.1-0.2-0.4-7.4-1.2-15.9c-2.2-24.5-2.2-23.7-1.4-23.7c2-2,4.6,1.3,7.6-3.1c1.3-1.9,1.1-3.3-0.7-3.7
		c-0.8-0.2-1.5-0.5-1.5-0.7c0-0.2,1.7-1.2,3.9-2.3c23.3-11.9,22.1-23.9-3.5-34.7c-3.1-1.3-6.9-2.8-8.5-3.3c-1.9-0.6-2.9-1.2-2.9-1.7
		c0-0.4,0.8-3.6,1.7-7c1-3.4,2-7.6,2.2-9.4c1.3-8.1-2.5-14.9-9.4-17c-3.5-1-7.8-0.4-12.2,1.8c-3.7,1.8-8.5,6.5-10.5,10.1
		c-1.7,3-1.3,3.7,2.3,4.3l2.2,0.4l1.1,7c1.3,8.4,1.4,9.2,0.5,9.2c-1.3,0-8.5,4-11.9,6.5c-4.5,3.4-10.8,10.1-13.1,14.1
		c-5.4,9.1-4.9,16.8,1.4,21.5l8.8,5c0.6,6.1,0.8,1.5,1.2,11.2c0.1,2.7,0.6,8.5,0.9,12.7l0.7,7.7l-4.7,4.8c-2.6,2.6-4.7,5.1-4.7,5.6
		c0,0.8,1.7,0.9,25.7,0.9C495,172.6,506.7,172.4,506.8,172.2L506.8,172.2z M482.5,155.5c-0.1-13.9-0.2-15.1-1-15.3
		c-0.8-0.2-0.9,0.8-0.9,15.1v15.3h-11.1h-11.1l2.5-2.6c1.4-1.4,3.2-3.4,4.1-4.4l1.6-1.8l-0.7-8.5c-1.4-9.3-1-46.4-9.8-46.7
		c-0.8,0-0.9,0.4-0.9,2.8c0,1.9,0.1,5.2-0.3,5.1c-0.3-0.1-0.7,0.2-0.8,0.7c-0.2,0.9,4.1,3.7,4.9,3.2c0.8-0.5,0.6-1.5-0.5-2.1
		c-0.7-0.5,0.4-1,0.4-2.5c0-1.1,2,1.5,2.4,2.6c1.5,3.5,1.3,8.4,0.6,11.5c-1.7-0.3-0.4-0.6-3.3-1.8c-0.1-0.1-1.5-1-3.1-2
		c-1.6-1-3.5-2.8-4.3-3.9c-2-3-2-7.9,0-12.1c4.1-8.8,13.9-18.2,23.2-22.4c4.4-2,4.9-2.3,4.8-2.8c-0.8-4.9-0.8-5.1,0.3-5.4
		c0.8-0.2,1.5,0,2.5,1.1c1.4,1.3,1.5,1.4,3.1,0.6c1.3-0.6,1.9-0.7,3.4-0.2c1,0.3,2,0.5,2.4,0.4c1.3-0.5,0.5-1.6-1.8-2.4
		c-2-0.7-2.7-0.7-3.8-0.2c-1.2,0.5-1.5,0.5-2.8-0.8c-1.2-1.1-1.6-1.3-2.5-0.8c-0.6,0.3-1.2,0.5-1.5,0.5c-0.3,0-0.8-2.1-1.1-4.6
		c-0.9-6.6-1.1-6.9-3.5-6.9c-1.1,0-2.1-0.2-2.3-0.4c-0.5-0.8,3.9-6.3,6.6-8.2c6.8-5,13.4-5.5,18.1-1.5c5,4.3,5.4,9.1,1.7,21.9
		c-1,3.4-1.7,6.9-1.6,7.8c0.2,1.6,0.3,1.7,5.2,3.4c11.3,4.1,18.6,8,22.8,12.1c7.1,7.1,3.6,13.5-12.2,21.9c-2.7,1.4-5,2.9-5.2,3.3
		c-0.4,1,0.8,2.7,2.1,3l1.3,0.3l-1.4,1.4c-1,1.1-1.8,1.4-3.2,1.4c-2.1,0-2.7-0.3-3.5-1.8c0,0-2.3-3-2,1c0.5,1.4,1.4,8.5,2.5,21.5
		l1.7,19.4h-11.1h-11.1L482.5,155.5L482.5,155.5z M487.3,66.7c0.2-0.2,0.3-0.7,0.3-1.3c0-1.1-2.2-1.3-2.6-0.3
		C484.5,66.6,486.2,67.8,487.3,66.7z M481.3,64.3c0.4-1-1-2.3-1.9-1.9c-0.4,0.2-0.7,0.8-0.7,1.5c0,0.9,0.3,1.2,1.2,1.2
		C480.5,65.1,481.1,64.7,481.3,64.3z M417.2,100.3c5.9-1.6,11.3-6.3,14.1-12.1c1.5-3.2,1.6-3.7,1.6-8.6c0-4.3-0.2-5.8-1.2-8
		c-4.4-10.5-15.8-15.9-26.6-12.5c-15,4.7-19.9,23.6-9.1,35.1C401.4,99.9,409.8,102.4,417.2,100.3L417.2,100.3z M403.3,97.1
		c-15-7.4-14.9-28.1,0.3-35.4c3.7-1.8,9.7-2.2,13.7-0.9c13.3,4.2,18.1,20.6,9.1,31.4c-2,2.4-6.4,5.2-9.7,6.1
		C412.8,99.5,407.1,99,403.3,97.1L403.3,97.1z M410.6,89.5c-0.4-1.1,0.1-1.9,1.2-1.9c0.7,0,1,0.3,0.8,1.1
		C412.5,89.9,411,90.5,410.6,89.5L410.6,89.5z M410.5,84.3c-1-2.5,0-5,2.2-5.4c2.9-0.6,3.8-4.9,1.4-6.6c-2.3-1.6-5.5-0.4-6.1,2.3
		c-0.4,1.7-1.5,2.4-2.4,1.5c-0.9-0.9,0.4-4.3,2.2-5.8c3.3-2.7,8.6-1.2,9.9,2.9c1.1,3.2-0.8,7-4,8c-0.7,0.2-1,0.8-1,2
		c0,1.4-0.2,1.7-0.9,1.7C411.3,85.1,410.7,84.7,410.5,84.3L410.5,84.3z M444.5,63.7c2.5-2.2,1.2-6.1-2.1-6.1c-1.8,0-3,1.1-3.6,3.1
		c-0.3,1.1-0.1,1.6,0.9,2.6C441.3,64.8,443.1,64.9,444.5,63.7z M441.1,61.8c-0.5-0.6-0.5-0.9,0-1.5c1.2-1.5,3.4-0.4,2.5,1.3
		C443,62.8,441.9,62.8,441.1,61.8L441.1,61.8z M461.1,60.6c1.5-1.5,1.1-3.3-0.9-4c-1.5-0.6-3.1,0.6-3.1,2.3
		C457.1,60.9,459.7,62,461.1,60.6L461.1,60.6z"/>
	<path id="rect5587" class="st0" d="M43.7,224.2h507.9c10.4,0,18.8,8.4,18.8,18.8v130.8c0,10.4-8.4,18.8-18.8,18.8H43.7
		c-10.4,0-18.8-8.4-18.8-18.8V243C24.9,232.7,33.3,224.2,43.7,224.2z"/>
	<rect id="rect5425" x="65.1" y="225.1" class="st1" width="465.2" height="166.7"/>
	<ellipse id="ellipse5427" class="st2" cx="297.9" cy="307.9" rx="229.5" ry="76.7"/>
	<text transform="matrix(1 0 0 1 191.3799 346.6568)" class="st1 st3 st4">ASM17</text>
	<path id="rect5585" class="st5" d="M43.7,29.2h507.9c10.4,0,18.8,8.4,18.8,18.8v130.8c0,10.4-8.4,18.8-18.8,18.8H43.7
		c-10.4,0-18.8-8.4-18.8-18.8V48C24.9,37.7,33.3,29.2,43.7,29.2z"/>
	<path id="rect5589" class="st5" d="M43.7,419.2h507.9c10.4,0,18.8,8.4,18.8,18.8v130.8c0,10.4-8.4,18.8-18.8,18.8H43.7
		c-10.4,0-18.8-8.4-18.8-18.8V438C24.9,427.7,33.3,419.2,43.7,419.2z"/>
	<path id="path6679" inkscape:connector-curvature="0" sodipodi:nodetypes="ccccccccccccccccccc" class="st6" d="M343.2,756.9
		l-4.1-40.9l8.4,1l-2.7-6.3c32.4-19.6,25.6-28.3-8.9-42.8l5.7-21.5c-9.6-23.6-28.4-7.8-33.5,1.4l6.3,1.9l2.2,17.5
		c-41.4,19.2-20.7,36.1-20.7,38.2l-5.8,2.1c4.7,6.4,7.2,6.8,9.5,6.8l0.8-26.4c0.6,19,0.1,38,2.3,57c-5.4,8.9-6.8,7.5-10.1,11
		l24.5,0.7l-0.2-32.7l0.6,33L343.2,756.9z"/>
	<path id="path6681" inkscape:connector-curvature="0" sodipodi:nodetypes="cc" class="st7" d="M315.8,660
		c4.9,0.3,9.8,1.5,15.9-12.1"/>
	<path id="path6683" inkscape:connector-curvature="0" class="st8" d="M321.3,643.8c-0.1,0.2-0.3-0.1-0.4,0c0,0-0.1,0-0.1,0.1
		c0,0,0,0.3,0,0.4"/>
	<path id="path6658" inkscape:connector-curvature="0" sodipodi:nodetypes="ccccccccccccccccccc" class="st6" d="M286.3,740.8
		l-4.1-40.9l8.4,1l-2.7-6.3c32.4-19.6,25.6-28.3-8.9-42.8l5.7-21.5c-9.6-23.6-28.4-7.8-33.5,1.4l6.3,1.9l2.2,17.5
		c-41.4,19.2-20.7,36.1-20.7,38.2l-5.8,2.1c4.7,6.4,7.2,6.8,9.5,6.8l0.8-26.4c0.6,19,0.1,38,2.3,57c-5.4,8.9-6.8,7.5-10.1,11
		l24.5,0.7l-0.2-32.7l0.6,33L286.3,740.8z"/>
	<path id="path6660" inkscape:connector-curvature="0" sodipodi:nodetypes="cc" class="st7" d="M259,643.9
		c4.9,0.3,9.8,1.5,15.9-12.1"/>
	<path id="path6662" inkscape:connector-curvature="0" class="st8" d="M264.5,627.7c-0.1,0.2-0.3-0.1-0.4,0c0,0-0.1,0-0.1,0.1
		c0,0,0,0.3,0,0.4"/>
	<path id="path6668" inkscape:connector-curvature="0" sodipodi:nodetypes="ccccccccccccccccccc" class="st6" d="M275.5,748
		l4.1-40.9l-8.4,1l2.7-6.3c-32.4-19.6-25.6-28.3,8.9-42.8l-5.7-21.5c9.6-23.6,28.4-7.8,33.5,1.4l-6.3,1.9l-2.2,17.5
		c41.4,19.2,20.7,36.1,20.7,38.2l5.8,2.1c-4.7,6.4-7.2,6.8-9.5,6.8l-0.8-26.4c-0.6,19-0.1,38-2.3,57c5.4,8.9,6.8,7.5,10.1,11
		l-24.5,0.7l0.2-32.7l-0.6,33L275.5,748z"/>
	<path id="path6670" inkscape:connector-curvature="0" sodipodi:nodetypes="cc" class="st7" d="M302.9,651.1
		c-4.9,0.3-9.8,1.5-15.9-12.1"/>
	<path id="path6673" inkscape:connector-curvature="0" class="st8" d="M297.4,634.9c0.1,0.2,0.3-0.1,0.4,0c0,0,0.1,0,0.1,0.1
		c0,0,0,0.3,0,0.4"/>
	<path id="rect5591" class="st5" d="M43.7,614.2h507.9c10.4,0,18.8,8.4,18.8,18.8v130.8c0,10.4-8.4,18.8-18.8,18.8H43.7
		c-10.4,0-18.8-8.4-18.8-18.8V633C24.9,622.7,33.3,614.2,43.7,614.2z"/>
	<path id="rect5621" inkscape:connector-curvature="0" sodipodi:nodetypes="ssssssscccss" class="st5" d="M209.6,438.9H537
		c10.4,0,18.8,8.4,18.8,18.8v89.6c0,10.4-8.4,18.8-18.8,18.8H209.6c-10.4,0-18.8-8.4-18.8-18.8v-56c-17.8-17.8-40.2-22.7-62.1-29.1
		c21.4,1.7,46.8-1.1,62.1,7.4v-12C190.8,447.3,199.2,438.9,209.6,438.9z"/>
	<path id="path6672" inkscape:connector-curvature="0" d="M195.9,148.7c-2.5,0-4.5,2-4.5,4.5v34.4c0,2.5,2,4.5,4.5,4.5h34.4
		c2.5,0,4.5-2,4.5-4.5v-34.4c0-2.5-2-4.5-4.5-4.5H195.9z"/>
	<path id="path6674" inkscape:connector-curvature="0" class="st9" d="M230.3,193c3,0,5.4-2.4,5.4-5.4v-34.4c0-3-2.4-5.4-5.4-5.4
		h-34.4c-3,0-5.4,2.4-5.4,5.4v34.4c0,3,2.4,5.4,5.4,5.4H230.3z"/>
	<path id="path6676" inkscape:connector-curvature="0" d="M211.1,154.1c0-2.7,4-2.7,4,0.1v11.1l15.6,9.4v4.1l-15.5-5.1v8.3l3.6,2.8
		v3.2l-5.5-1.7l-5.5,1.7v-3.2l3.6-2.8v-8.3l-15.5,5.1v-4.1l15.4-9.4L211.1,154.1z"/>
	<path id="path6678" inkscape:connector-curvature="0" d="M253.5,34.9c-2.5,0-4.5,2-4.5,4.5v34.4c0,2.5,2,4.5,4.5,4.5h34.4
		c2.5,0,4.5-2,4.5-4.5V39.4c0-2.5-2-4.5-4.5-4.5L253.5,34.9z"/>
	<path id="path6680" inkscape:connector-curvature="0" class="st9" d="M287.9,79.2c3,0,5.4-2.4,5.4-5.4V39.4c0-3-2.4-5.4-5.4-5.4
		h-34.4c-3,0-5.4,2.4-5.4,5.4v34.4c0,3,2.4,5.4,5.4,5.4H287.9z"/>
	<path id="path6682" inkscape:connector-curvature="0" d="M270.6,41.6c1.2,0,2.3-1,2.3-2.3c0-1.3-1-2.3-2.3-2.3
		c-1.2,0-2.3,1-2.3,2.3C268.4,40.6,269.4,41.6,270.6,41.6"/>
	<path id="path6684" inkscape:connector-curvature="0" d="M274.2,42.4H267c-1.6,0-2.9,1.3-2.9,2.9v5.4c0,1.3,1.8,1.3,1.8,0v-5.2h1.8
		v6.6c0.9,0.2,1.9,0.4,2.9,0.4c1,0,2-0.2,2.9-0.4v-6.6h1.8v5.2c0,1.4,1.8,1.4,1.8,0v-5.4C277.2,43.8,276,42.4,274.2,42.4"/>
	<path id="path6686" inkscape:connector-curvature="0" d="M279.2,54.2c-2.4,1.7-5.4,2.6-8.6,2.6c-3.2,0-6.1-1-8.5-2.6l-1.9,2.8
		c3,2,6.6,3.2,10.4,3.2c3.9,0,7.5-1.2,10.5-3.2L279.2,54.2z"/>
	<path id="path6688" inkscape:connector-curvature="0" d="M282.8,60c-3.5,2.4-7.7,3.7-12.2,3.7c-4.5,0-8.7-1.4-12.1-3.7l-1.9,2.8
		c4,2.7,8.9,4.3,14.1,4.3c5.2,0,10.1-1.6,14.1-4.3L282.8,60z"/>
	<path id="path6690" inkscape:connector-curvature="0" d="M286.5,65.8c-4.5,3.1-10,4.9-15.8,4.9c-5.9,0-11.3-1.8-15.8-4.8l-1.9,2.8
		c5,3.4,11.1,5.4,17.7,5.4c6.6,0,12.7-2,17.7-5.4L286.5,65.8z"/>
	<path id="path6710" inkscape:connector-curvature="0" d="M138.3,148.7c-2.5,0-4.5,2-4.5,4.5v34.4c0,2.5,2,4.5,4.5,4.5h34.4
		c2.5,0,4.5-2,4.5-4.5v-34.4c0-2.5-2-4.5-4.5-4.5H138.3z"/>
	<path id="path6712" inkscape:connector-curvature="0" class="st9" d="M172.7,193c3,0,5.4-2.4,5.4-5.4v-34.4c0-3-2.4-5.4-5.4-5.4
		h-34.4c-3,0-5.4,2.4-5.4,5.4v34.4c0,3,2.4,5.4,5.4,5.4H172.7z"/>
	<path id="path6714" inkscape:connector-curvature="0" d="M163.3,160.1c-0.6,0.6-1.4,0.8-2.3,0.8c-1.1,0-2.1-0.5-2.7-1.3
		c-0.6,0.9-1.6,1.3-2.7,1.3c-1.1,0-2.1-0.5-2.7-1.3c-0.6,0.9-1.6,1.3-2.8,1.3c-0.8,0-1.6-0.2-2.2-0.7l-0.4-3.1
		c0.6,0.8,1.5,1.3,2.6,1.3c1.1,0,2.2-0.6,2.8-1.5c0.6,0.9,1.6,1.5,2.7,1.5c1.1,0,2.2-0.6,2.7-1.4c0.6,0.9,1.6,1.4,2.7,1.4
		c1.1,0,2.1-0.6,2.7-1.5L163.3,160.1z"/>
	<polygon id="polygon6716" points="150,183 145.5,154.8 142.2,154.7 147.1,186.3 164.1,186.3 169,154.7 165.7,154.8 161.2,183 	"/>
	<path id="path6836" inkscape:connector-curvature="0" d="M80.6,34.9c-2.5,0-4.5,2-4.5,4.5v34.4c0,2.5,2,4.5,4.5,4.5H115
		c2.5,0,4.5-2,4.5-4.5V39.4c0-2.5-2-4.5-4.5-4.5L80.6,34.9z"/>
	<path id="path6838" inkscape:connector-curvature="0" class="st9" d="M115,79.2c3,0,5.4-2.4,5.4-5.4V39.4c0-3-2.4-5.4-5.4-5.4H80.6
		c-3,0-5.4,2.4-5.4,5.4v34.4c0,3,2.4,5.4,5.4,5.4H115z"/>
	<path id="path6840" inkscape:connector-curvature="0" d="M95.9,49.9c0,1.2-1.1,2.5-2.5,2.5v20.1c0,2.9-3.9,2.9-3.9,0V52.3
		c-1.4,0-2.6-1.1-2.6-2.6V38.6c0-1,1.4-1,1.4,0v8.2h1.2h1.3h-0.1v-8.3c0-0.9,1.3-1,1.3,0v8.2h2.5v-8.3c0-0.9,1.4-0.9,1.4,0
		L95.9,49.9z"/>
	<path id="path6842" inkscape:connector-curvature="0" d="M108.1,41.2v31.3c0,2.8-3.9,2.8-3.9,0V60h-2.1V41.2
		C102.1,36.8,108.1,36.8,108.1,41.2"/>
	<path id="path6932" inkscape:connector-curvature="0" d="M195.9,91.3c-2.5,0-4.5,2-4.5,4.5v34.4c0,2.5,2,4.5,4.5,4.5h34.4
		c2.5,0,4.5-2,4.5-4.5V95.8c0-2.5-2-4.5-4.5-4.5H195.9z"/>
	<path id="path6934" inkscape:connector-curvature="0" class="st9" d="M230.3,135.6c3,0,5.4-2.4,5.4-5.4V95.8c0-3-2.4-5.4-5.4-5.4
		h-34.4c-3,0-5.4,2.4-5.4,5.4v34.4c0,3,2.4,5.4,5.4,5.4H230.3z"/>
	<path id="path6936" inkscape:connector-curvature="0" d="M227.7,117v5.4h2.9v-8.1h-32.1v-11.7c0-0.8-0.6-1.4-1.4-1.4
		c-0.8,0-1.4,0.6-1.4,1.4v19.9h2.8V117H227.7z"/>
	<path id="path6938" inkscape:connector-curvature="0" d="M202.9,108.3c1.4,0,2.6-1.1,2.6-2.6c0-1.4-1.2-2.6-2.6-2.6
		c-1.4,0-2.6,1.1-2.6,2.6C200.3,107.1,201.5,108.3,202.9,108.3"/>
	<path id="path6940" inkscape:connector-curvature="0" d="M230.6,112.2l0-3.5c0-1.1-1-1.9-2.1-2l-20.2-2c0,0-0.1,0-0.1,0
		c-0.7,0-1.3,0.6-1.3,1.3v3.8h-5.3c-0.7,0-1.3,0.6-1.3,1.3c0,0.7,0.6,1.3,1.3,1.3L230.6,112.2z"/>
	<path id="path6968" inkscape:connector-curvature="0" d="M195.9,34.8c-2.5,0-4.5,2-4.5,4.5v34.4c0,2.5,2,4.5,4.5,4.5h34.4
		c2.5,0,4.5-2,4.5-4.5V39.3c0-2.5-2-4.5-4.5-4.5L195.9,34.8L195.9,34.8z"/>
	<path id="path6970" inkscape:connector-curvature="0" class="st9" d="M195.9,79.2c-3,0-5.4-2.4-5.4-5.4V39.3c0-3,2.4-5.4,5.4-5.4
		h34.4c3,0,5.4,2.4,5.4,5.4v34.4c0,3-2.4,5.4-5.4,5.4H195.9z"/>
	<path id="path6972" inkscape:connector-curvature="0" d="M216.4,52.9v-7.8h2.7c1.1,0,1.3,0.7,1.4,0.9c0.4,0.4,0.7,0.6,1.3,0.6h3V40
		h-3c-0.6,0-0.9-0.2-1.3-0.7c-0.1-0.1-0.3-0.9-1.4-0.9H215V52l-1.9-1.2l-16.5,10.7h3.9v12.9h9.4V64.1h6.5v10h9.4V61.4h3.9
		L216.4,52.9z"/>
	<path id="path7114" inkscape:connector-curvature="0" d="M311.2,91.3c-2.5,0-4.5,2-4.5,4.5v34.4c0,2.5,2,4.5,4.5,4.5h34.4
		c2.5,0,4.5-2,4.5-4.5V95.8c0-2.5-2-4.5-4.5-4.5L311.2,91.3L311.2,91.3z"/>
	<path id="path7116" inkscape:connector-curvature="0" class="st9" d="M345.6,135.6c3,0,5.4-2.4,5.4-5.4V95.8c0-3-2.4-5.4-5.4-5.4
		h-34.4c-3,0-5.4,2.4-5.4,5.4v34.4c0,3,2.4,5.4,5.4,5.4L345.6,135.6L345.6,135.6z"/>
	<path id="path7118" inkscape:connector-curvature="0" d="M327.6,93.8c-1.8,0.2-8.5,3.2-8.6,18.9c-0.2,16.5,6.8,19.9,8.7,19.9v-10.9
		c-1.5,0-1.8-1.7-2.2-5.1c-0.2-2.3-0.3-5,0-7.8c0.2-1.9,0.6-3.8,2.2-3.8L327.6,93.8z"/>
	<path id="path7120" inkscape:connector-curvature="0" d="M332.6,132.6c0.7,0,1.2-0.6,1.2-1.2l0,0c0,0,0-8.5,0-8.5
		c0-0.7-0.5-1.2-1.2-1.2h-3.1v10.9L332.6,132.6L332.6,132.6z"/>
	<path id="path7122" inkscape:connector-curvature="0" d="M332.6,105c0.7,0,1.2-0.6,1.2-1.2h0c0,0,0-8.7,0-8.7
		c0-0.7-0.5-1.2-1.2-1.2h-3.1V105H332.6L332.6,105z"/>
	<path id="path8743" inkscape:connector-curvature="0" class="st9" d="M287.9,192.9c3,0,5.4-2.4,5.4-5.4v-34.4c0-3-2.4-5.4-5.4-5.4
		h-34.4c-3,0-5.4,2.4-5.4,5.4v34.4c0,3,2.4,5.4,5.4,5.4H287.9z"/>
	<path id="path8151" inkscape:connector-curvature="0" d="M293.7,166.6L293.7,166.6C293.7,166.5,293.7,166.5,293.7,166.6
		c0-0.1-0.1-0.2-0.1-0.2l-5-5.3l-5-5.3l-5-5.3c-0.1-0.1-0.2-0.1-0.3-0.1l-7.3,0.5l-7.3,0.5l-7.3,0.5c-0.1,0-0.1,0-0.1,0
		c-0.1,0-0.2,0.1-0.3,0.2l-2.8,7.3l-2.8,7.3l-2.9,7.3c-0.1,0.1,0,0.3,0.1,0.4l5.2,5.4l4.7,5.2l0,0l0,0l5,5.3c0,0,0,0,0,0l0,0
		c0,0,0,0,0.1,0c0,0,0,0,0,0c0,0,0,0,0.1,0h0c0,0,0.1,0,0.1,0h0l7.3-0.5l7.3-0.5l7.3-0.5c0.2,0,0.3-0.1,0.3-0.2l2.9-7.3l2.9-7.3
		l2.9-7.3C293.8,166.8,293.8,166.6,293.7,166.6L293.7,166.6z M289.9,174.4l-2.5,6.4l-5.5,0.4l-0.9,0.1l2.5-6.4l5.5-0.4L289.9,174.4z
		 M265,186.2l1.2-3.1l5.5-0.4l0.8-0.1l-2.5,6.4l-6.4,0.4L265,186.2z M253.8,179.4l2.5-6.4l4.2,4.5l-2.5,6.4L253.8,179.4z
		 M283.3,156.4l4.3,4.6l-1.3,0.1l-4.9,0.3l-4.3-4.6l1.4-0.1L283.3,156.4z M275.7,174.6l-6.4,0.4l2.5-6.4l6.4-0.4l-1.3,3.4
		L275.7,174.6z M281,162.3l4.3,4.6l-6.2,0.4l-4.3-4.6l0.3,0L281,162.3z M273.7,162.8l4.3,4.6l-6.2,0.4l-4.3-4.5l1.4-0.1L273.7,162.8
		z M264.2,170.1l0.1-0.3l2.4-6.2l4.4,4.7l-0.3,0.7l-2.3,5.8l-1.3-1.3L264.2,170.1z M266.5,182.3l2.5-6.4l6.4-0.4l-2.5,6.4l-5.5,0.4
		L266.5,182.3z M276.6,174.5l1.3-3.4l1.2-3l6.4-0.4l-2.5,6.4l-5.9,0.4L276.6,174.5z M276,156.9l4.3,4.6l-0.3,0l-5.9,0.4l-4.3-4.5
		l1.4-0.1L276,156.9z M268.8,157.4l4.3,4.6l-1.4,0.1l-4.8,0.3l-1.7-1.8l-2.5-2.8l0.2,0L268.8,157.4z M262,158.5l2.5,2.7l1.6,1.8
		l-2.4,6l-0.2,0.4l-0.4-0.5l-3.7-4.1l2.2-5.5L262,158.5z M259.2,165.7l0.4,0.5l3.7,4.1l-2.2,5.5l-0.4,0.9l-0.9-1l-3.2-3.5l2.4-6
		L259.2,165.7z M261.4,177.3l0.3-0.7l2.3-5.8l1.3,1.3l3.1,3.3l-0.1,0.3l-2.4,6.2l-1-1.1L261.4,177.3z M273.7,181.8l2.5-6.4l5.5-0.4
		l0.9-0.1l-2.5,6.4l-5.5,0.4L273.7,181.8z M286.3,166.8l-4.3-4.6l1.3-0.1l4.9-0.3l4.3,4.6L286.3,166.8z M278.3,151.1l4.3,4.5
		l-1.4,0.1l-4.9,0.3l-4.3-4.6L278.3,151.1z M271.1,151.6l4.3,4.6l-1.4,0.1l-4.9,0.3l-4.3-4.6L271.1,151.6z M263.8,152.2l4.3,4.6
		l-0.3,0l-5.9,0.4l-2.4-2.5l-1.9-2.1L263.8,152.2z M256.8,153l2.2,2.2l2.4,2.6l0,0l-0.4,0.9l-2.1,5.4l-4.6-4.8L256.8,153z
		 M254,160.3l4.6,4.8l-0.4,1l-2.2,5.5l-4.7-4.8L254,160.3z M251.1,167.5l2.8,2.9l1.8,1.8l-2.5,6.5l-4.6-4.8L251.1,167.5z M259,183.4
		l2.1-5.3l1,1.1l3.4,3.6l-0.4,1.1l-2.1,5.3l-4.4-4.7L259,183.4z M273.4,182.6l5.5-0.4l0.9-0.1l-2.5,6.4l-6.4,0.4L273.4,182.6z
		 M284.5,188.1l-6.4,0.4l2.5-6.4l5.9-0.4l0.4,0L284.5,188.1z M290.2,173.6l-5.5,0.4l-0.9,0.1l2.5-6.4l6.4-0.4L290.2,173.6z"/>
	<path id="path8754" inkscape:connector-curvature="0" class="st9" d="M172.7,135.6c3,0,5.4-2.4,5.4-5.4V95.8c0-3-2.4-5.4-5.4-5.4
		h-34.4c-3,0-5.4,2.4-5.4,5.4v34.4c0,3,2.4,5.4,5.4,5.4H172.7z"/>
	<path id="path8258" inkscape:connector-curvature="0" d="M168.9,102.5h-2.4c-0.4,0-0.8-0.3-1-0.7l-1-2.2c-0.5-1.1-1.6-1.9-2.9-1.9
		h-5.4c-1.2,0-2.4,0.7-2.9,1.9l-1,2.2c-0.2,0.4-0.5,0.7-1,0.7h-2.7c-0.2,0-0.3-0.1-0.4-0.2l-0.6-0.9c-0.2-0.3-0.5-0.5-0.9-0.5h-2
		c-0.4,0-0.7,0.2-0.9,0.5l-0.6,0.9c-0.1,0.1-0.3,0.2-0.4,0.2h-0.8c-2,0-3.7,1.6-3.7,3.7v18.4c0,2,1.6,3.7,3.7,3.7h26.8
		c2,0,3.7-1.6,3.7-3.7v-18.4C172.5,104.1,170.9,102.5,168.9,102.5L168.9,102.5z M149.2,108.8c-0.7,0-1.3-0.6-1.3-1.3
		c0-0.7,0.6-1.3,1.3-1.3s1.3,0.6,1.3,1.3C150.5,108.2,149.9,108.8,149.2,108.8z M158.6,123.5c-4.5,0-8.1-3.6-8.1-8.1
		c0-4.5,3.6-8.1,8.1-8.1c4.5,0,8.1,3.6,8.1,8.1C166.8,119.8,163.1,123.5,158.6,123.5z M152.1,115.9c-0.3,0-0.5-0.2-0.5-0.5
		c0-3.9,3.2-7.1,7.1-7.1c0.3,0,0.5,0.2,0.5,0.5c0,0.3-0.2,0.5-0.5,0.5c-3.3,0-6,2.7-6,6C152.6,115.6,152.4,115.9,152.1,115.9z"/>
	<path id="path8777" inkscape:connector-curvature="0" class="st9" d="M172.7,79.2c3,0,5.4-2.4,5.4-5.4V39.4c0-3-2.4-5.4-5.4-5.4
		h-34.4c-3,0-5.4,2.4-5.4,5.4v34.4c0,3,2.4,5.4,5.4,5.4H172.7z"/>
	<path id="path8318" inkscape:connector-curvature="0" d="M172.6,64.5l-0.5-0.4l-3.7-3.3l-0.5-0.4l-3.8-3.3c1.6,0.3,2.9,0,3.7-0.9
		c0.6-0.7,0.8-1.7,0.7-2.8l-0.8,0c0.1,0.9,0,1.7-0.5,2.2c-1.5,1.7-5.5,0.5-8.9-2.4c-3.4-3-5-6.9-3.5-8.5c0.5-0.5,1.2-0.8,2.1-0.8
		l-0.1-0.8c-1.1,0-2.1,0.3-2.7,1c-0.8,0.9-0.9,2.2-0.5,3.7l-3.6-3.2l-0.5-0.4l-3.7-3.3l-0.5-0.4l-4.2-3.7l-3.3,3.8l-0.4,0.5
		l-3.3,3.8l4.2,3.7l0.5,0.4l3.7,3.3l0.5,0.4l4.2,3.7l2.8-3.1l1.8,1.6l-1.6,1.8l1.3,1.2l-0.7,0.8l3.6,3.2l0.7-0.8l1.3,1.2l1.6-1.8
		l1.3,1.1l-2.8,3.2l4.2,3.7l0.5,0.4l3.7,3.3l0.5,0.4l4.2,3.7l3.3-3.8l0.4-0.5l3.3-3.8L172.6,64.5z M167.9,61.3l3.7,3.3l-2.9,3.3
		l-3.7-3.3L167.9,61.3z M164.6,64.2l-3.7-3.3l2.9-3.3l3.7,3.3L164.6,64.2z M149.7,45.2l3.7,3.3l-2.9,3.3l-3.7-3.3L149.7,45.2z
		 M145.5,41.5l3.7,3.3l-2.9,3.3l-3.7-3.3L145.5,41.5z M141.2,37.8L145,41l-2.9,3.3l-3.7-3.3L141.2,37.8z M138.8,48.1l-3.7-3.3
		l2.9-3.3l3.7,3.3L138.8,48.1z M143,51.8l-3.7-3.3l2.9-3.3l3.7,3.3L143,51.8z M147.2,55.5l-3.7-3.3l2.9-3.3l3.7,3.3L147.2,55.5z
		 M151.6,51.5l2.5-2.8c0.3,0.7,0.7,1.5,1.3,2.3l-1.9,2.2L151.6,51.5z M161.7,56.3c0.6,0.3,1.2,0.5,1.7,0.6l-2.5,2.8l-1.3-1.1
		L161.7,56.3z M161.3,67.9l-3.7-3.3l2.9-3.3l3.7,3.3L161.3,67.9z M165.5,71.6l-3.7-3.3l2.9-3.3l3.7,3.3L165.5,71.6z M169.7,75.3
		l-3.7-3.3l2.9-3.3l3.7,3.3L169.7,75.3z M173,71.6l-3.7-3.3l2.9-3.3l3.7,3.3L173,71.6z"/>
	<polygon id="polygon8320" points="158,47 158,47.6 164.1,47.1 160.1,51.6 160.5,52 164.5,47.4 164.9,53.5 165.5,53.5 165,46.4 	"/>
	<path id="path8322" inkscape:connector-curvature="0" d="M167.9,43.1c1.2,0.9,1.6,2.4,1.3,3.8l0.6,0.1c0.3-1.6-0.2-3.2-1.5-4.4
		c-1.3-1.2-3.1-1.3-4.6-0.6l0.2,0.5C165.2,42,166.7,42.3,167.9,43.1L167.9,43.1z"/>
	<path id="path8324" inkscape:connector-curvature="0" d="M168.5,46.7c0.2-1.2-0.2-2.3-1.1-3.2c-0.9-0.9-2.2-0.9-3.3-0.5l0.2,0.5
		c0.9-0.3,1.9-0.1,2.7,0.5c0.9,0.6,1.1,1.7,0.9,2.6L168.5,46.7z"/>
	<path id="path8326" inkscape:connector-curvature="0" d="M167.4,46.5c0.1-0.7-0.1-1.5-0.7-2c-0.6-0.5-1.4-0.6-2.1-0.3l0.2,0.5
		c1-0.3,2.1,0.7,2,1.8L167.4,46.5z"/>
	<path id="path8328" inkscape:connector-curvature="0" d="M165.1,45.2l0.3,0.6c0.1,0,0.3,0.1,0.3,0.3l0.6,0.1c0-0.3-0.1-0.6-0.3-0.8
		C165.7,45.2,165.4,45.1,165.1,45.2L165.1,45.2z"/>
	<path id="path8807" inkscape:connector-curvature="0" class="st9" d="M115,192.9c3,0,5.4-2.4,5.4-5.4v-34.4c0-3-2.4-5.4-5.4-5.4
		H80.6c-3,0-5.4,2.4-5.4,5.4v34.4c0,3,2.4,5.4,5.4,5.4H115z"/>
	<rect id="rect8180" x="87.7" y="155.4" width="1.2" height="3.6"/>
	<rect id="rect8182" x="83.5" y="155.4" width="1.2" height="3.6"/>
	<path id="path8184" inkscape:connector-curvature="0" d="M115.7,160.8v-8.4H79.9v8.4H115.7z M112.2,158.4h1.2
		c0.3,0,0.6,0.3,0.6,0.6c0,0.3-0.3,0.6-0.6,0.6h-1.2c-0.3,0-0.6-0.3-0.6-0.6S111.8,158.4,112.2,158.4z M109.2,156.6h1.2
		c0.3,0,0.6,0.3,0.6,0.6s-0.3,0.6-0.6,0.6h-1.2c-0.3,0-0.6-0.3-0.6-0.6S108.9,156.6,109.2,156.6z M109.2,158.4h1.2
		c0.3,0,0.6,0.3,0.6,0.6c0,0.3-0.3,0.6-0.6,0.6h-1.2c-0.3,0-0.6-0.3-0.6-0.6S108.9,158.4,109.2,158.4z M106.2,154.8h1.2
		c0.3,0,0.6,0.3,0.6,0.6s-0.3,0.6-0.6,0.6h-1.2c-0.3,0-0.6-0.3-0.6-0.6S105.9,154.8,106.2,154.8z M106.2,156.6h1.2
		c0.3,0,0.6,0.3,0.6,0.6s-0.3,0.6-0.6,0.6h-1.2c-0.3,0-0.6-0.3-0.6-0.6C105.6,156.9,105.9,156.6,106.2,156.6z M106.2,158.4h1.2
		c0.3,0,0.6,0.3,0.6,0.6c0,0.3-0.3,0.6-0.6,0.6h-1.2c-0.3,0-0.6-0.3-0.6-0.6S105.9,158.4,106.2,158.4z M103.2,158.4h1.2
		c0.3,0,0.6,0.3,0.6,0.6c0,0.3-0.3,0.6-0.6,0.6h-1.2c-0.3,0-0.6-0.3-0.6-0.6S102.9,158.4,103.2,158.4z M97.2,157.8
		c-0.3,0-0.6-0.3-0.6-0.6v-2.4c0-0.3,0.3-0.6,0.6-0.6h2.4c0.3,0,0.6,0.3,0.6,0.6c0,0.3-0.3,0.6-0.6,0.6h-1.8v1.2h1.8
		c0.3,0,0.6,0.3,0.6,0.6v2.4c0,0.3-0.3,0.6-0.6,0.6h-2.4c-0.3,0-0.6-0.3-0.6-0.6c0-0.3,0.3-0.6,0.6-0.6H99v-1.2L97.2,157.8z
		 M92.5,154.8c0-0.3,0.3-0.6,0.6-0.6h2.4c0.3,0,0.6,0.3,0.6,0.6v4.8c0,0.3-0.3,0.6-0.6,0.6h-2.4c-0.3,0-0.6-0.3-0.6-0.6V154.8z
		 M91.3,155.4c0.3,0,0.6,0.3,0.6,0.6c0,0.3-0.3,0.6-0.6,0.6s-0.6-0.3-0.6-0.6S90.9,155.4,91.3,155.4z M91.3,157.8
		c0.3,0,0.6,0.3,0.6,0.6c0,0.3-0.3,0.6-0.6,0.6s-0.6-0.3-0.6-0.6C90.7,158.1,90.9,157.8,91.3,157.8z M86.5,154.8
		c0-0.3,0.3-0.6,0.6-0.6h2.4c0.3,0,0.6,0.3,0.6,0.6v4.8c0,0.3-0.3,0.6-0.6,0.6h-2.4c-0.3,0-0.6-0.3-0.6-0.6V154.8z M82.3,154.8
		c0-0.3,0.3-0.6,0.6-0.6h2.4c0.3,0,0.6,0.3,0.6,0.6v4.8c0,0.3-0.3,0.6-0.6,0.6h-2.4c-0.3,0-0.6-0.3-0.6-0.6V154.8z"/>
	<path id="path8186" inkscape:connector-curvature="0" d="M108,173.3c2.6,0,4.8-2.1,4.8-4.8c0-2.6-2.1-4.8-4.8-4.8
		c-2.6,0-4.8,2.1-4.8,4.8C103.2,171.2,105.4,173.3,108,173.3z M106,171.4c-0.2,0.2-0.6,0.2-0.8,0c-0.2-0.2-0.2-0.6,0-0.8
		c0.2-0.2,0.6-0.2,0.8,0C106.3,170.8,106.3,171.1,106,171.4z M111.6,168c0.3,0,0.6,0.3,0.6,0.6c0,0.3-0.3,0.6-0.6,0.6
		s-0.6-0.3-0.6-0.6C111,168.2,111.2,168,111.6,168z M110,165.8c0.2-0.2,0.6-0.2,0.8,0c0.2,0.2,0.2,0.6,0,0.8c-0.2,0.2-0.6,0.2-0.8,0
		C109.7,166.4,109.7,166,110,165.8z M110,170.5c0.2-0.2,0.6-0.2,0.8,0c0.2,0.2,0.2,0.6,0,0.8c-0.2,0.2-0.6,0.2-0.8,0
		C109.7,171.1,109.7,170.8,110,170.5z M108,164.4c0.3,0,0.6,0.3,0.6,0.6s-0.3,0.6-0.6,0.6c-0.3,0-0.6-0.3-0.6-0.6
		S107.7,164.4,108,164.4z M108,171.5c0.3,0,0.6,0.3,0.6,0.6s-0.3,0.6-0.6,0.6c-0.3,0-0.6-0.3-0.6-0.6S107.7,171.5,108,171.5z
		 M105.2,165.8c0.2-0.2,0.6-0.2,0.8,0c0.2,0.2,0.2,0.6,0,0.8c-0.2,0.2-0.6,0.2-0.8,0C104.9,166.4,104.9,166,105.2,165.8z
		 M103.8,168.6c0-0.3,0.3-0.6,0.6-0.6s0.6,0.3,0.6,0.6c0,0.3-0.3,0.6-0.6,0.6C104.1,169.2,103.8,168.9,103.8,168.6z"/>
	<path id="path8188" inkscape:connector-curvature="0" d="M115.7,162H79.9v16.7h35.8V162z M85.9,175.1c0,0.3-0.3,0.6-0.6,0.6h-0.6
		v1.2c0,0.3-0.3,0.6-0.6,0.6s-0.6-0.3-0.6-0.6v-1.2h-0.6c-0.3,0-0.6-0.3-0.6-0.6v-1.8c0-0.3,0.3-0.6,0.6-0.6h0.6v-4.2
		c0-0.3,0.3-0.6,0.6-0.6s0.6,0.3,0.6,0.6v4.2h0.6c0.3,0,0.6,0.3,0.6,0.6V175.1z M85.9,165.6c0,0.2-0.1,0.3-0.2,0.4l-0.6,0.6
		c-0.1,0.1-0.3,0.2-0.4,0.2h-1.2c-0.2,0-0.3-0.1-0.4-0.2l-0.6-0.6c-0.1-0.1-0.2-0.3-0.2-0.4v-1.2c0-0.2,0.1-0.3,0.2-0.4l0.6-0.6
		c0.1-0.1,0.3-0.2,0.4-0.2h1.2c0.2,0,0.3,0.1,0.4,0.2l0.6,0.6c0.1,0.1,0.2,0.3,0.2,0.4V165.6z M90.7,172.7c0,0.3-0.3,0.6-0.6,0.6
		h-0.6v3.6c0,0.3-0.3,0.6-0.6,0.6s-0.6-0.3-0.6-0.6v-3.6h-0.6c-0.3,0-0.6-0.3-0.6-0.6v-1.8c0-0.3,0.3-0.6,0.6-0.6h0.6v-1.8
		c0-0.3,0.3-0.6,0.6-0.6s0.6,0.3,0.6,0.6v1.8h0.6c0.3,0,0.6,0.3,0.6,0.6V172.7z M90.7,165.6c0,0.2-0.1,0.3-0.2,0.4l-0.6,0.6
		c-0.1,0.1-0.3,0.2-0.4,0.2h-1.2c-0.2,0-0.3-0.1-0.4-0.2l-0.6-0.6c-0.1-0.1-0.2-0.3-0.2-0.4v-1.2c0-0.2,0.1-0.3,0.2-0.4l0.6-0.6
		c0.1-0.1,0.3-0.2,0.4-0.2h1.2c0.2,0,0.3,0.1,0.4,0.2l0.6,0.6c0.1,0.1,0.2,0.3,0.2,0.4L90.7,165.6z M95.5,176.3
		c0,0.3-0.3,0.6-0.6,0.6h-0.6c0,0.3-0.3,0.6-0.6,0.6c-0.3,0-0.6-0.3-0.6-0.6h-0.6c-0.3,0-0.6-0.3-0.6-0.6v-1.8
		c0-0.3,0.3-0.6,0.6-0.6h0.6v-5.4c0-0.3,0.3-0.6,0.6-0.6c0.3,0,0.6,0.3,0.6,0.6v5.4h0.6c0.3,0,0.6,0.3,0.6,0.6V176.3z M95.5,165.6
		c0,0.2-0.1,0.3-0.2,0.4l-0.6,0.6c-0.1,0.1-0.3,0.2-0.4,0.2h-1.2c-0.2,0-0.3-0.1-0.4-0.2L92,166c-0.1-0.1-0.2-0.3-0.2-0.4v-1.2
		c0-0.2,0.1-0.3,0.2-0.4l0.6-0.6c0.1-0.1,0.3-0.2,0.4-0.2h1.2c0.2,0,0.3,0.1,0.4,0.2l0.6,0.6c0.1,0.1,0.2,0.3,0.2,0.4L95.5,165.6z
		 M100.2,171.5c0,0.3-0.3,0.6-0.6,0.6H99v4.8c0,0.3-0.3,0.6-0.6,0.6c-0.3,0-0.6-0.3-0.6-0.6v-4.8h-0.6c-0.3,0-0.6-0.3-0.6-0.6v-1.8
		c0-0.3,0.3-0.6,0.6-0.6h0.6v-0.6c0-0.3,0.3-0.6,0.6-0.6c0.3,0,0.6,0.3,0.6,0.6v0.6h0.6c0.3,0,0.6,0.3,0.6,0.6V171.5z M100.2,165.6
		c0,0.2-0.1,0.3-0.2,0.4l-0.6,0.6c-0.1,0.1-0.3,0.2-0.4,0.2h-1.2c-0.2,0-0.3-0.1-0.4-0.2l-0.6-0.6c-0.1-0.1-0.2-0.3-0.2-0.4v-1.2
		c0-0.2,0.1-0.3,0.2-0.4l0.6-0.6c0.1-0.1,0.3-0.2,0.4-0.2H99c0.2,0,0.3,0.1,0.4,0.2l0.6,0.6c0.1,0.1,0.2,0.3,0.2,0.4L100.2,165.6z
		 M108,162.6c3.3,0,6,2.7,6,6c0,3.3-2.7,6-6,6s-6-2.7-6-6C102,165.3,104.7,162.6,108,162.6z M103.2,178.1c-0.3,0-0.6-0.3-0.6-0.6
		s0.3-0.6,0.6-0.6c0.3,0,0.6,0.3,0.6,0.6S103.5,178.1,103.2,178.1z M103.2,176.3c-0.3,0-0.6-0.3-0.6-0.6c0-0.3,0.3-0.6,0.6-0.6
		c0.3,0,0.6,0.3,0.6,0.6C103.8,176.1,103.5,176.3,103.2,176.3z M105.6,178.1c-0.3,0-0.6-0.3-0.6-0.6s0.3-0.6,0.6-0.6
		s0.6,0.3,0.6,0.6S105.9,178.1,105.6,178.1z M105.6,176.3c-0.3,0-0.6-0.3-0.6-0.6c0-0.3,0.3-0.6,0.6-0.6s0.6,0.3,0.6,0.6
		C106.2,176.1,105.9,176.3,105.6,176.3z M108,178.1c-0.3,0-0.6-0.3-0.6-0.6s0.3-0.6,0.6-0.6c0.3,0,0.6,0.3,0.6,0.6
		S108.3,178.1,108,178.1z M108,176.3c-0.3,0-0.6-0.3-0.6-0.6c0-0.3,0.3-0.6,0.6-0.6c0.3,0,0.6,0.3,0.6,0.6
		C108.6,176.1,108.3,176.3,108,176.3z M110.4,178.1c-0.3,0-0.6-0.3-0.6-0.6s0.3-0.6,0.6-0.6c0.3,0,0.6,0.3,0.6,0.6
		S110.7,178.1,110.4,178.1z M110.4,176.3c-0.3,0-0.6-0.3-0.6-0.6c0-0.3,0.3-0.6,0.6-0.6c0.3,0,0.6,0.3,0.6,0.6
		C111,176.1,110.7,176.3,110.4,176.3z M112.8,178.1c-0.3,0-0.6-0.3-0.6-0.6s0.3-0.6,0.6-0.6c0.3,0,0.6,0.3,0.6,0.6
		S113.1,178.1,112.8,178.1z M112.8,176.3c-0.3,0-0.6-0.3-0.6-0.6c0-0.3,0.3-0.6,0.6-0.6c0.3,0,0.6,0.3,0.6,0.6
		C113.4,176.1,113.1,176.3,112.8,176.3z"/>
	<rect id="rect8190" x="93.7" y="155.4" width="1.2" height="3.6"/>
	<path id="path8192" inkscape:connector-curvature="0" d="M79.9,179.9v8.4h35.8v-8.4H79.9z M85.3,184.7c0,0.3-0.3,0.6-0.6,0.6h-0.6
		v0.6c0,0.3-0.3,0.6-0.6,0.6s-0.6-0.3-0.6-0.6v-0.6h-0.6c-0.3,0-0.6-0.3-0.6-0.6v-1.8c0-0.3,0.3-0.6,0.6-0.6h0.6v-1.2
		c0-0.3,0.3-0.6,0.6-0.6s0.6,0.3,0.6,0.6v1.2h0.6c0.3,0,0.6,0.3,0.6,0.6V184.7z M89.5,183.5c0,0.3-0.3,0.6-0.6,0.6h-0.6v1.8
		c0,0.3-0.3,0.6-0.6,0.6s-0.6-0.3-0.6-0.6v-1.8h-0.6c-0.3,0-0.6-0.3-0.6-0.6v-1.8c0-0.3,0.3-0.6,0.6-0.6h0.6c0-0.3,0.3-0.6,0.6-0.6
		s0.6,0.3,0.6,0.6h0.6c0.3,0,0.6,0.3,0.6,0.6L89.5,183.5z M93.7,185.3c0,0.3-0.3,0.6-0.6,0.6h-0.6c0,0.3-0.3,0.6-0.6,0.6
		s-0.6-0.3-0.6-0.6h-0.6c-0.3,0-0.6-0.3-0.6-0.6v-1.8c0-0.3,0.3-0.6,0.6-0.6h0.6v-1.8c0-0.3,0.3-0.6,0.6-0.6c0.3,0,0.6,0.3,0.6,0.6
		v1.8h0.6c0.3,0,0.6,0.3,0.6,0.6V185.3z M97.8,184.1c0,0.3-0.3,0.6-0.6,0.6h-0.6v1.2c0,0.3-0.3,0.6-0.6,0.6s-0.6-0.3-0.6-0.6v-1.2
		h-0.6c-0.3,0-0.6-0.3-0.6-0.6v-1.8c0-0.3,0.3-0.6,0.6-0.6h0.6v-0.6c0-0.3,0.3-0.6,0.6-0.6c0.3,0,0.6,0.3,0.6,0.6v0.6h0.6
		c0.3,0,0.6,0.3,0.6,0.6V184.1z M102,185.3c0,0.3-0.3,0.6-0.6,0.6h-0.6c0,0.3-0.3,0.6-0.6,0.6s-0.6-0.3-0.6-0.6H99
		c-0.3,0-0.6-0.3-0.6-0.6v-1.8c0-0.3,0.3-0.6,0.6-0.6h0.6v-1.8c0-0.3,0.3-0.6,0.6-0.6c0.3,0,0.6,0.3,0.6,0.6v1.8h0.6
		c0.3,0,0.6,0.3,0.6,0.6V185.3z M106.2,183.5c0,0.3-0.3,0.6-0.6,0.6H105v1.8c0,0.3-0.3,0.6-0.6,0.6c-0.3,0-0.6-0.3-0.6-0.6v-1.8
		h-0.6c-0.3,0-0.6-0.3-0.6-0.6v-1.8c0-0.3,0.3-0.6,0.6-0.6h0.6c0-0.3,0.3-0.6,0.6-0.6c0.3,0,0.6,0.3,0.6,0.6h0.6
		c0.3,0,0.6,0.3,0.6,0.6L106.2,183.5z M111,186.5c-1.6,0-3-1.3-3-3c0-0.6,0.2-1.2,0.5-1.6l2.1,2.1c0.1,0.1,0.3,0.2,0.4,0.2
		c0.2,0,0.3-0.1,0.4-0.2c0.2-0.2,0.2-0.6,0-0.8l-2.1-2.1c0.5-0.3,1-0.5,1.6-0.5c1.6,0,3,1.3,3,3C114,185.1,112.6,186.5,111,186.5z"
		/>
	<path id="path8836" inkscape:connector-curvature="0" class="st9" d="M287.9,135.6c3,0,5.4-2.4,5.4-5.4V95.8c0-3-2.4-5.4-5.4-5.4
		h-34.4c-3,0-5.4,2.4-5.4,5.4v34.4c0,3,2.4,5.4,5.4,5.4H287.9z"/>
	<path id="path8456" inkscape:connector-curvature="0" d="M270.7,108.2c-2.7,0-5,2.2-5,4.8c0,2.6,2.2,4.8,5,4.8c2.7,0,5-2.2,5-4.8
		C275.7,110.4,273.5,108.2,270.7,108.2z M270.7,115.6c-1.5,0-2.7-1.2-2.7-2.7s1.2-2.7,2.7-2.7s2.7,1.2,2.7,2.7
		C273.5,114.5,272.2,115.6,270.7,115.6z"/>
	<path id="path8458" inkscape:connector-curvature="0" d="M284.5,113c0.6-0.7,1.1-1.3,1.6-2c0.3-0.4,0.6-0.8,0.8-1.2
		c0.3-0.5,0.2-1.2-0.3-1.5c-0.5-0.3-1.2-0.2-1.5,0.3c-0.2,0.4-0.5,0.7-0.8,1.1c-0.4,0.5-0.8,1.1-1.3,1.6c-1.9-2-4.1-3.9-6.5-5.7
		c-1.2-0.9-2.4-1.7-3.6-2.5c6.8-3.5,12.3-4.1,13.9-2.1c0.4,0.4,0.5,1,0.5,1.8c0,0.6,0.5,1.1,1.1,1.1h0c0.6,0,1.1-0.5,1.1-1.1
		c0-1.2-0.3-2.2-1-3.1c-1.7-2.1-5.1-2.6-9.8-1.3c-2.5,0.7-5.3,1.9-8.1,3.4c-1.2-0.7-2.5-1.3-3.7-1.8c-0.6-0.2-1.2,0-1.5,0.5
		c-0.3,0.5,0,1.2,0.6,1.4c0.8,0.3,1.6,0.7,2.4,1.2c-1.2,0.8-2.4,1.6-3.6,2.5c-2.4,1.8-4.6,3.7-6.5,5.7c-0.9-1.1-1.7-2.2-2.4-3.2
		c-2-3.1-2.5-5.7-1.4-7.1c0.8-1,2.6-1.4,5-1c0.6,0.1,1.2-0.3,1.3-0.9c0.1-0.6-0.3-1.1-0.9-1.2c-4.2-0.6-6.1,0.7-7.1,1.9
		c-1.7,2.1-1.2,5.5,1.3,9.5c0.8,1.2,1.7,2.5,2.8,3.7c-1.1,1.3-2,2.5-2.8,3.7c-2.5,4-3,7.4-1.3,9.5c1,1.3,2.8,2,5.1,2
		c1.4,0,2.9-0.2,4.7-0.7c2.5-0.7,5.3-1.9,8.1-3.4c2.8,1.6,5.6,2.7,8.1,3.4c1.7,0.5,3.3,0.7,4.7,0.7c2.3,0,4.1-0.7,5.1-2
		c1.7-2.1,1.2-5.5-1.3-9.5C286.6,115.5,285.6,114.2,284.5,113L284.5,113z M262,125.4c-3.7,1-6.4,0.8-7.4-0.5
		c-1.1-1.3-0.5-3.9,1.4-7.1c0.7-1.1,1.5-2.1,2.4-3.2c1.9,2,4.1,3.9,6.5,5.7c1.2,0.9,2.4,1.7,3.6,2.5
		C266.3,124,264.1,124.9,262,125.4L262,125.4z M266.3,118.6c-2.4-1.8-4.6-3.7-6.4-5.6c1.8-1.9,4-3.9,6.4-5.6c1.5-1.1,3-2.1,4.4-3
		c1.5,0.9,3,1.9,4.5,3c2.4,1.8,4.6,3.7,6.4,5.6c-1.8,1.9-4,3.9-6.4,5.6c-1.5,1.1-3,2.1-4.4,3C269.3,120.7,267.8,119.7,266.3,118.6
		L266.3,118.6z M286.9,124.9c-0.6,0.8-1.8,1.1-3.3,1.1c-2.6,0-6.4-1.1-10.6-3.3c1.2-0.8,2.4-1.6,3.6-2.5c2.4-1.8,4.6-3.7,6.5-5.7
		c0.9,1.1,1.7,2.2,2.4,3.2C287.4,121,287.9,123.6,286.9,124.9L286.9,124.9z"/>
	<path id="path8460" inkscape:connector-curvature="0" d="M263.2,100.8c0.3,0,0.6-0.1,0.8-0.3c0.2-0.2,0.3-0.5,0.3-0.8
		c0-0.3-0.1-0.6-0.3-0.8c-0.2-0.2-0.5-0.3-0.8-0.3s-0.6,0.1-0.8,0.3c-0.2,0.2-0.3,0.5-0.3,0.8c0,0.3,0.1,0.6,0.3,0.8
		C262.6,100.7,262.9,100.8,263.2,100.8z"/>
	<path id="path8462" inkscape:connector-curvature="0" d="M287.5,105.1c-0.3,0-0.6,0.1-0.8,0.3c-0.2,0.2-0.3,0.5-0.3,0.8
		s0.1,0.6,0.3,0.8c0.2,0.2,0.5,0.3,0.8,0.3c0.3,0,0.6-0.1,0.8-0.3c0.2-0.2,0.3-0.5,0.3-0.8c0-0.3-0.1-0.6-0.3-0.8
		C288.1,105.2,287.8,105.1,287.5,105.1z"/>
	<path id="path8873" inkscape:connector-curvature="0" class="st9" d="M345.6,79.2c3,0,5.4-2.4,5.4-5.4V39.4c0-3-2.4-5.4-5.4-5.4
		h-34.4c-3,0-5.4,2.4-5.4,5.4v34.4c0,3,2.4,5.4,5.4,5.4H345.6z"/>
	<path id="path8603" inkscape:connector-curvature="0" d="M347.1,48.3l-0.4,1.7l-13.3-2.8l0.1-0.7c0.1-0.4-0.2-0.7-0.5-0.8L320.5,43
		l0.1-0.7c0-0.2,0-0.4-0.1-0.5c-0.1-0.2-0.3-0.3-0.4-0.3l-9.3-2c-0.4-0.1-0.7,0.2-0.8,0.5l-1.7,8c0,0.2,0,0.4,0.1,0.5
		c0.1,0.2,0.3,0.3,0.4,0.3l9.3,2c0,0,0.1,0,0.1,0c0.3,0,0.6-0.2,0.7-0.5l0.1-0.7l12.6,2.7c0,0,0.1,0,0.1,0c0.1,0,0.3,0,0.4-0.1
		c0.2-0.1,0.3-0.3,0.3-0.4l0.1-0.7l13.3,2.8l-0.4,1.7l1.3,0.3l1.6-7.3L347.1,48.3z M319,43.3L319,43.3l-0.9,4.4l-0.3,1.5l-8-1.7
		l1.4-6.6l8,1.7L319,43.3z M332,47.5L332,47.5l-0.6,2.7v0l-0.1,0.7l-11.9-2.5l0.8-4l11.9,2.5L332,47.5z M346.3,51.9l-0.1,0.7
		l-13.3-2.8l0.3-1.3l13.3,2.8L346.3,51.9z"/>
	<path id="path8605" inkscape:connector-curvature="0" d="M330.8,58.7c0.6-0.6,0.9-1.4,0.9-2.3c0-1.9-1.5-3.4-3.4-3.4
		c-1.9,0-3.4,1.5-3.4,3.4c0,0.9,0.4,1.7,0.9,2.3l-7.1,13.6H316v1.4h3.7l7.4-14.2c0.2,0.1,0.4,0.2,0.6,0.2v13.6h1.4V59.6
		c0.2,0,0.4-0.1,0.6-0.2l7.4,14.2h3.7v-1.4H338L330.8,58.7z M328.4,58.3c-1.1,0-2-0.9-2-2c0-1.1,0.9-2,2-2s2,0.9,2,2
		S329.5,58.3,328.4,58.3z"/>
	<path id="path8899" inkscape:connector-curvature="0" class="st9" d="M345.6,192.9c3,0,5.4-2.4,5.4-5.4v-34.4c0-3-2.4-5.4-5.4-5.4
		h-34.4c-3,0-5.4,2.4-5.4,5.4v34.4c0,3,2.4,5.4,5.4,5.4H345.6z"/>
	<path id="path8531" inkscape:connector-curvature="0" d="M313,177.5c-2.7,0-4.9,2.2-4.9,4.9s2.2,4.9,4.9,4.9c2.7,0,4.9-2.2,4.9-4.9
		C317.9,179.7,315.7,177.5,313,177.5L313,177.5z M313,185.4c-1.7,0-3.1-1.4-3.1-3.1c0-1.7,1.4-3.1,3.1-3.1c1.7,0,3.1,1.4,3.1,3.1
		S314.7,185.4,313,185.4z"/>
	<path id="path8533" inkscape:connector-curvature="0" d="M325.2,177.5c-2.7,0-4.9,2.2-4.9,4.9s2.2,4.9,4.9,4.9
		c2.7,0,4.9-2.2,4.9-4.9S327.8,177.5,325.2,177.5z M325.2,185.4c-1.7,0-3.1-1.4-3.1-3.1c0-1.7,1.4-3.1,3.1-3.1
		c1.7,0,3.1,1.4,3.1,3.1S326.9,185.4,325.2,185.4z"/>
	<path id="path8535" inkscape:connector-curvature="0" d="M337.3,177.5c-2.7,0-4.9,2.2-4.9,4.9s2.2,4.9,4.9,4.9
		c2.7,0,4.9-2.2,4.9-4.9S340,177.5,337.3,177.5z M337.3,185.4c-1.7,0-3.1-1.4-3.1-3.1c0-1.7,1.4-3.1,3.1-3.1s3.1,1.4,3.1,3.1
		S339,185.4,337.3,185.4z"/>
	<path id="path8537" inkscape:connector-curvature="0" d="M346.3,169.5v-1.9l-9.5-11.2c0.1-0.2,0.2-0.5,0.2-0.8
		c0-1.1-0.9-2.1-2.1-2.1c-0.2,0-0.3,0-0.4,0l-0.1-0.1l0,0.1c-0.9,0.2-1.6,1-1.6,2c0,0.7,0.4,1.4,0.9,1.7l-1.1,6.8
		c-1.8,0.4-3.1,1.9-3.2,3.8h-0.9v5.7h-1v-11.2h-9.9v7.4h-1.1v-4h-2.9c1.6-2,0.6-3.7,0.6-3.7l-2.9,2.7l-1.6-1.6
		c0.2-0.3,0.2-0.7-0.1-1c-0.3-0.3-0.9-0.3-1.2,0c-0.3,0.3-0.3,0.9,0,1.2c0.3,0.3,0.7,0.3,1,0.1l1.6,1.6l-2.7,2.5
		c0,0,1.7,0.8,3.7-0.4v2.6h-1.7v3.7h-1.9v3.3h32.6v-3.3H338v-5.7h-0.6c0-1.8-1.2-3.3-2.9-3.8l1.1-6.6l9,10.6v1.2h-2.2v3.1h0.9v-2.2
		h1.9v1.5h0.9v-1.5h1.7v2.2h0.9v-3.1L346.3,169.5L346.3,169.5z M334.9,156.8c-0.6,0-1.2-0.5-1.2-1.2c0-0.6,0.5-1.2,1.2-1.2
		c0.6,0,1.2,0.5,1.2,1.2C336.1,156.2,335.5,156.8,334.9,156.8z"/>
	<path id="path8948" inkscape:connector-curvature="0" class="st9" d="M115,135.6c3,0,5.4-2.4,5.4-5.4V95.8c0-3-2.4-5.4-5.4-5.4
		H80.6c-3,0-5.4,2.4-5.4,5.4v34.4c0,3,2.4,5.4,5.4,5.4H115z"/>
	<path id="path8399" inkscape:connector-curvature="0" d="M111.2,129H84.5c-1,0-1.9-0.9-1.9-1.9V98.8c0-1,0.9-1.9,1.9-1.9h26.7
		c1,0,1.9,0.9,1.9,1.9v28.3C113.1,128.2,112.2,129,111.2,129z M84.5,98c-0.5,0-0.9,0.4-0.9,0.9v28.3c0,0.5,0.4,0.9,0.9,0.9h26.7
		c0.5,0,0.9-0.4,0.9-0.9V98.8c0-0.5-0.4-0.9-0.9-0.9H84.5z M109.5,125.8h-4.3c-0.3,0-0.5-0.2-0.5-0.5v-7.1c0-0.3,0.2-0.5,0.5-0.5
		h4.3c0.3,0,0.5,0.2,0.5,0.5v7.1C110.1,125.6,109.8,125.8,109.5,125.8z M105.7,124.8h3.3v-6.1h-3.3V124.8z M103.2,125.8h-4.3
		c-0.3,0-0.5-0.2-0.5-0.5v-2.5c0-0.3,0.2-0.5,0.5-0.5h4.3c0.3,0,0.5,0.2,0.5,0.5v2.5C103.7,125.6,103.5,125.8,103.2,125.8z
		 M99.4,124.8h3.3v-1.5h-3.3V124.8z M96.8,125.8h-4.3c-0.3,0-0.5-0.2-0.5-0.5v-2.5c0-0.3,0.2-0.5,0.5-0.5h4.3c0.3,0,0.5,0.2,0.5,0.5
		v2.5C97.3,125.6,97.1,125.8,96.8,125.8z M93,124.8h3.3v-1.5H93V124.8z M90.4,125.8h-4.3c-0.3,0-0.5-0.2-0.5-0.5v-2.5
		c0-0.3,0.2-0.5,0.5-0.5h4.3c0.3,0,0.5,0.2,0.5,0.5v2.5C91,125.6,90.7,125.8,90.4,125.8z M86.6,124.8h3.3v-1.5h-3.3V124.8z
		 M103.2,121.2h-4.3c-0.3,0-0.5-0.2-0.5-0.5v-2.5c0-0.3,0.2-0.5,0.5-0.5h4.3c0.3,0,0.5,0.2,0.5,0.5v2.5
		C103.7,120.9,103.5,121.2,103.2,121.2z M99.4,120.1h3.3v-1.5h-3.3V120.1z M96.8,121.2h-4.3c-0.3,0-0.5-0.2-0.5-0.5v-2.5
		c0-0.3,0.2-0.5,0.5-0.5h4.3c0.3,0,0.5,0.2,0.5,0.5v2.5C97.3,120.9,97.1,121.2,96.8,121.2z M93,120.1h3.3v-1.5H93V120.1z
		 M90.4,121.2h-4.3c-0.3,0-0.5-0.2-0.5-0.5v-2.5c0-0.3,0.2-0.5,0.5-0.5h4.3c0.3,0,0.5,0.2,0.5,0.5v2.5
		C91,120.9,90.7,121.2,90.4,121.2z M86.6,120.1h3.3v-1.5h-3.3V120.1z M109.5,116.5h-4.3c-0.3,0-0.5-0.2-0.5-0.5v-2.5
		c0-0.3,0.2-0.5,0.5-0.5h4.3c0.3,0,0.5,0.2,0.5,0.5v2.5C110.1,116.3,109.8,116.5,109.5,116.5z M105.7,115.5h3.3V114h-3.3V115.5z
		 M103.2,116.5h-4.3c-0.3,0-0.5-0.2-0.5-0.5v-2.5c0-0.3,0.2-0.5,0.5-0.5h4.3c0.3,0,0.5,0.2,0.5,0.5v2.5
		C103.7,116.3,103.5,116.5,103.2,116.5z M99.4,115.5h3.3V114h-3.3V115.5z M96.8,116.5h-4.3c-0.3,0-0.5-0.2-0.5-0.5v-2.5
		c0-0.3,0.2-0.5,0.5-0.5h4.3c0.3,0,0.5,0.2,0.5,0.5v2.5C97.3,116.3,97.1,116.5,96.8,116.5z M93,115.5h3.3V114H93V115.5z M90.4,116.5
		h-4.3c-0.3,0-0.5-0.2-0.5-0.5v-2.5c0-0.3,0.2-0.5,0.5-0.5h4.3c0.3,0,0.5,0.2,0.5,0.5v2.5C91,116.3,90.7,116.5,90.4,116.5z
		 M86.6,115.5h3.3V114h-3.3V115.5z M109.5,111.9h-4.3c-0.3,0-0.5-0.2-0.5-0.5v-2.5c0-0.3,0.2-0.5,0.5-0.5h4.3c0.3,0,0.5,0.2,0.5,0.5
		v2.5C110.1,111.7,109.8,111.9,109.5,111.9z M105.7,110.8h3.3v-1.5h-3.3V110.8z M103.2,111.9h-4.3c-0.3,0-0.5-0.2-0.5-0.5v-2.5
		c0-0.3,0.2-0.5,0.5-0.5h4.3c0.3,0,0.5,0.2,0.5,0.5v2.5C103.7,111.7,103.5,111.9,103.2,111.9z M99.4,110.8h3.3v-1.5h-3.3V110.8z
		 M96.8,111.9h-4.3c-0.3,0-0.5-0.2-0.5-0.5v-2.5c0-0.3,0.2-0.5,0.5-0.5h4.3c0.3,0,0.5,0.2,0.5,0.5v2.5
		C97.3,111.7,97.1,111.9,96.8,111.9z M93,110.8h3.3v-1.5H93V110.8z M90.4,111.9h-4.3c-0.3,0-0.5-0.2-0.5-0.5v-2.5
		c0-0.3,0.2-0.5,0.5-0.5h4.3c0.3,0,0.5,0.2,0.5,0.5v2.5C91,111.7,90.7,111.9,90.4,111.9z M86.6,110.8h3.3v-1.5h-3.3V110.8z
		 M109.5,106.2H86.1c-0.3,0-0.5-0.2-0.5-0.5v-5.3c0-0.3,0.2-0.5,0.5-0.5h23.4c0.3,0,0.5,0.2,0.5,0.5v5.3
		C110.1,106,109.8,106.2,109.5,106.2z M86.6,105.2H109v-4.3H86.6L86.6,105.2z"/>
	
		<path id="path5300" inkscape:connector-curvature="0" sodipodi:nodetypes="cccccsccccsccccccccscccccccsccccsccccccccccccccccccccccccccccccccccccccscsscscccscccccccccccccscscsccccccsccccccccccccscccccccccccccsccccccccsccscccscccccccscsccccscccccccsccscccccsccsccccccccccccccccccccccccccccccccccccccccsccccccccccccccccccccsccccccccc" d="
		M482.3,737.9c-3.7-1.1-4.8-1.7-6.8-3.4c-1-0.9-3-2.1-4.3-2.5c-3.1-1.1-6.2-3.5-7.8-6c-2.1-3.1-2.9-6.8-3.4-15.2
		c-0.4-6.7-1.3-12.7-2.1-13.5c-0.1-0.1-0.5,2-0.8,4.6c-0.5,4.4-3.1,19.9-3.8,23c-0.3,1.2,0.3,1.7,5.9,6.3c4.3,3.5,6.1,5.2,5.9,5.7
		c-0.2,0.6-3.4,0.7-23.2,0.7c-17.8,0-23-0.1-23.3-0.6c-0.2-0.3-0.5-9-0.6-19.2l-0.2-18.6l-2.4-0.3c-2-0.3-3-0.9-7-4.3
		c-7.3-6.3-6.6-5.2-5.4-9.3l1.1-3.6l-2.5-2.6c-3.5-3.7-4.7-6.3-4.7-9.9c0-3.8,1.2-6.2,4.7-9.4c3.5-3.1,11.9-7.2,19.7-9.5
		c3.4-1,6.2-1.9,6.3-1.9c0.2-0.1-1.3-10.8-1.5-10.9c-0.1,0-1.1-0.4-2.4-0.8c-1.9-0.6-2.2-0.9-2.1-2c0.2-3.9,5.2-10.2,9.8-12.5
		c3.9-2,8.8-2.3,12.6-0.8c3.3,1.2,6.1,3.5,7.3,5.8c0.5,0.9,1.6,2.1,2.6,2.6c2.2,1.1,3.4,2.8,3.9,5.5c0.4,2.1,0.5,2.3,4.8,4.8
		c11.2,6.8,17.1,13.7,17.1,20.1c0,6.6-5.7,11.6-16.6,14.5l-4,1.1l-0.6,8.8l-0.6,8.8l1.2,3.5c1.7,4.8,1.7,5.1,2.3,13.9
		c0.5,8.9,1.3,12,3.7,15.1c1.7,2.3,6.3,5.2,7.4,4.7c0.4-0.1,0.8-0.9,1-1.8c0.5-2.3,3.3-3.5,8.5-3.5c7.1,0,10.6,2.2,9.3,5.7
		c-0.6,1.7-3.2,2.5-9.1,2.7l-5.7,0.3l2.7,1.4c8.3,4.1,21,0.4,24.7-7.2c2.3-4.8,1-8.2-6-15.5c-6.3-6.7-8.1-10-7.7-14.5
		c0.1-1.6,0.7-3.7,1.3-4.6l1-1.7l-4.1-0.1l-4.1-0.1v-18.8v-18.8l30.7-0.1l30.7-0.1l0.3,7.8c0.2,4.3,0.3,12.9,0.3,19l0,11.3h-26.2
		h-26.2l-1.3,2.7c-2.7,5.5-1.1,9.7,6.9,17.9c5.7,5.9,7.2,9,6.5,13.7c-0.7,4.6-5.2,9.1-11.3,11.2
		C491.2,738.4,485.2,738.8,482.3,737.9L482.3,737.9z M438.4,719.9c0.1-14.5,0.2-15.7,1-15.9c0.8-0.2,0.9,0.9,0.9,15.7v15.9h10.4
		c5.7,0,10.4-0.1,10.4-0.2c0-0.1-2.2-2-4.9-4.2c-3.1-2.5-4.9-4.4-4.9-4.9c0-0.5,0.3-2.6,0.8-4.6c1.1-5.4,2.6-14.7,3.4-21.9
		c0.9-7.5,1.2-6.7-5.5-14.9c-8.4-10.3-11.1-15.9-11.1-22.4c0-2.3,0.3-4.1,1-5.7l1-2.3l-1.4-0.7c-5.1-2.7-1.4-10.8,4.8-10.5
		c1.5,0.1,2.4-0.2,3.1-0.8c1.1-1,1.1-1.7-0.1-4.5c-0.8-1.9-0.1-4.8,1.8-7c1.5-1.8,1.5-2.1-0.1-4c-3.3-3.9-9.3-5.5-14.4-3.8
		c-2.8,0.9-6.4,3.8-8.5,6.9c-2.6,3.8-2.5,5.2,0.5,5.3c1.5,0,1.7,0.4,2.2,4.1l0.3,2.8h2.1c4.1,0,8.7-2.5,11-6c0.7-1.1,1.6-1.9,2-1.9
		c2,0-0.7,4.7-4,6.9c-2.5,1.7-6.2,3-8.7,3h-2l0.3,2.9l0.3,2.9l-2.2,0.5c-10.7,2.7-20.4,6.9-24.7,10.8c-6.4,5.7-5.8,10.8,2.1,18.2
		c2.9,2.7,3.9,3.9,3.5,4.3c-0.4,0.4-0.8,0.4-1.6,0c-1.3-0.7-1.2-0.8-2.1,2.1l-0.8,2.3l4.5,3.9l4.5,3.9l2.6-8c1.4-4.4,2.9-9,3.3-10.3
		l0.7-2.3l-4.4-4.4l-4.4-4.4l-0.5,1.4c-0.5,1.2-0.4,1.6,0.8,2.8c1.2,1.2,1.3,2.4,0.3,2.4c-0.2,0-1.4-0.9-2.7-2
		c-2.4-2.1-3.1-3.7-1.3-3.3c0.8,0.2,1.1-0.1,1.6-1.8c0.4-1.1,0.9-2.1,1.2-2.2c0.3-0.1,3,2.2,6,5l5.4,5.2l7.6,0
		c4.2,0,7.9,0.2,8.3,0.5c0.6,0.4-0.1,2.7-4,13.2l-4.7,12.7l-3.1-0.3c-1.7-0.2-3.8-0.4-4.6-0.6l-1.5-0.3v15.8
		c0,8.7,0.1,16.9,0.3,18.1l0.3,2.3h8.8h8.8L438.4,719.9z M406.7,676.1c-1.7-1.7-2-2.3-1.4-2.7c0.5-0.4,1.2-0.1,3,1.6
		c2.2,2,2.6,3.2,1.1,3.2C409,678.2,407.8,677.2,406.7,676.1L406.7,676.1z M434.8,635.7c-0.9-0.6-0.4-2.2,0.7-2.2
		c0.6,0,1,0.4,1.1,1.1C436.8,635.6,435.8,636.3,434.8,635.7z M429.9,634.2c-0.9-0.6-0.4-2.2,0.7-2.2c0.6,0,1,0.4,1.1,1.1
		C431.9,634.1,430.8,634.8,429.9,634.2L429.9,634.2z M489.3,730.8c2.3-2.3-0.8-4-7-4c-4.8,0-7.1,1-7.3,3.3c-0.2,2,0.2,2.1,7.7,2
		C487.7,731.9,488.3,731.8,489.3,730.8z M431.6,688c2.1-5.8,4-10.8,4.1-11.1c0.2-0.5-1.5-0.6-7.2-0.6h-7.4L418,686
		c-1.7,5.4-3.1,10-3.1,10.3c0,0.4,7.9,1.9,11.7,2.1C427.6,698.5,428.2,697.2,431.6,688L431.6,688z M456.8,681.8
		c0.2-4.2,0.5-7.7,0.7-7.8c0.2-0.1,2.5-0.8,5-1.4c12.4-3.1,17.7-9.5,14.1-17.1c-1.5-3.1-8.3-9.6-13.3-12.7c-5.8-3.6-5.6-3.6-6.6-0.8
		c-0.6,1.7-0.7,2.4-0.3,2.5c0.3,0.1,0.9,0.5,1.3,1c1.2,1.2,0.1,2-1.6,1.2c-0.7-0.3-1.4-0.5-1.4-0.5c-0.1,0.1-0.6,0.9-1.2,1.8
		c-0.6,0.9-1.1,1.7-1,1.8c0.1,0.1,1.6,1,3.3,2c6.5,3.9,9.4,8.1,6.2,9c-1.6,0.4-2.1-0.1-1.4-1.2c0.5-0.8,0.3-1.1-1-2.4
		c-0.9-0.8-3.2-2.5-5.2-3.8L451,651l-1.3,1c-1.7,1.4-4.3,2.4-5.9,2.4c-1.6,0-2.7,1.7-3.4,5.3c-0.9,4.9,0.6,10.2,4.5,16.1
		c3,4.5,10.9,14.2,11.3,13.9C456.3,689.5,456.6,685.9,456.8,681.8L456.8,681.8z M506.6,683l0.1-6.6h8.4h8.4l0.1,6.6l0.1,6.6h10.4
		h10.4l-0.1-8.3l-0.1-8.3l-29.1-0.1l-29.1-0.1v8.4v8.4h10.1h10.1L506.6,683z M514.4,683.6v-5.9h-3.2H508v5.9v5.9h3.2h3.2V683.6z
		 M522.3,683.6v-5.9h-3.2h-3.2v5.9v5.9h3.2h3.2V683.6z M544.4,666c-0.2-2.9-0.3-6.5-0.3-7.9v-2.6h-28.9h-28.9v7.9v7.9h29.3h29.3
		L544.4,666z M447.3,651.2l1.4-0.9l-1.1-0.8c-0.6-0.5-1-1.1-0.7-1.4c0.3-0.5,1.1-0.5,3.1,0.3c0.3,0.1,1.2-0.6,1.9-1.5l1.3-1.8
		l-1.2-1c-1-0.8-1.1-1.1-0.5-1.6c0.5-0.5,0.8-0.5,1.6,0c0.8,0.5,1.1,0.4,1.7-0.9c0.9-1.7,1-3.3,0.3-3.7c-0.8-0.5-0.6-1.7,0.2-1.7
		c1.7,0,0-4.3-2-4.7c-1.7-0.4-2.5,0-3.7,1.9c-1.2,2-1.2,2.7-0.1,5.3c1.1,2.5,0.9,3.4-1,5.3c-1.3,1.2-1.8,1.4-4,1.3
		c-2.3-0.1-2.7,0.1-4.2,1.6c-3.2,3.2-1.6,6,3,5.6C444.8,652.3,446.5,651.8,447.3,651.2L447.3,651.2z"/>
	<text transform="matrix(1.3628 0 0 1 496.7695 670.6979)" class="st3 st10">CCC</text>
	<g class="st11">
		<text transform="matrix(1.3628 0 0 1 496.7695 670.6979)" class="st12 st3 st10">CCC</text>
	</g>
	<path id="path9268" inkscape:connector-curvature="0" sodipodi:nodetypes="cccccccccccccccc" class="st13" d="M113.4,687.7
		c9-11.8,11.8-24.1-19.7-37.6l1.9-13.2l4-1.4c-6.6-25.8-30.2-15-29.3-3.3l4.8,19c-34.3,11.5-44.1,24.1-11.4,39l-2.5,3.3
		c1.9,5.3,11.8,6.6,9-4.3l2.9,0.3c-5.1,17-4.5,32.1-6.8,48.1l40.5,1l3.1-55.3l1.2,12.3c4.1-0.5,2.9,0.7,8.6-5.4
		C120.3,689.2,119.3,688.4,113.4,687.7L113.4,687.7z"/>
	<path id="path6556" inkscape:connector-curvature="0" sodipodi:nodetypes="cc" class="st14" d="M82.1,635.6
		c3.2,4.1,6.3,7.8,12.9,7.8"/>
	<path id="path6560" inkscape:connector-curvature="0" class="st15" d="M91.2,631.1C91.2,631.1,91.2,631,91.2,631.1
		C91.2,631,91.1,631,91.2,631.1c0-0.1,0-0.1,0-0.1s0,0,0,0c0,0,0,0,0,0s0,0,0,0c0,0,0,0,0,0c0,0,0,0,0,0c0,0,0,0,0,0c0.1,0,0,0,0,0
		c0,0,0,0,0,0c0,0,0,0,0,0c0,0,0,0,0.1,0c0,0,0,0,0,0c0,0,0,0,0,0s0,0,0,0c0,0,0,0.1,0,0.1"/>
	<path id="path6562" inkscape:connector-curvature="0" class="st15" d="M92.8,705.4l-3.4,33.1"/>
	<path id="path6604" inkscape:connector-curvature="0" sodipodi:nodetypes="ccccccccccccccccccc" class="st6" d="M96.8,771.7
		l-4.1-40.9l8.4,1l-2.7-6.3c32.4-19.6,25.6-28.3-8.9-42.8l5.7-21.5c-9.6-23.6-28.4-7.8-33.5,1.4l6.3,1.9l2.2,17.5
		c-41.4,19.2-20.7,36.1-20.7,38.2l-5.8,2.1c4.7,6.4,7.2,6.8,9.5,6.8l0.8-26.4c0.6,19,0.1,38,2.3,57c-5.4,8.9-6.8,7.5-10.1,11
		l24.5,0.7l-0.2-32.7l0.6,33H96.8z"/>
	<path id="path6606" inkscape:connector-curvature="0" sodipodi:nodetypes="cc" class="st7" d="M69.5,674.8
		c4.9,0.3,9.8,1.5,15.9-12.1"/>
	<path id="path6608" inkscape:connector-curvature="0" class="st8" d="M75,658.6c-0.1,0.2-0.3-0.1-0.4,0c0,0-0.1,0-0.1,0.1
		c0,0,0,0.3,0,0.4"/>
	<path id="path6570" inkscape:connector-curvature="0" sodipodi:nodetypes="ccccccccccccccccccc" class="st6" d="M138,749.3
		l-4.1-40.9l8.4,1l-2.7-6.3c32.4-19.6,25.6-28.3-8.9-42.8l5.7-21.5c-9.6-23.6-28.4-7.8-33.5,1.4l6.3,1.9l2.2,17.5
		c-41.4,19.2-20.7,36.1-20.7,38.2l-5.8,2.1c4.7,6.4,7.2,6.8,9.5,6.8l0.8-26.4c0.6,19,0.1,38,2.3,57c-5.4,8.9-6.8,7.5-10.1,11
		l24.5,0.7l-0.2-32.7l0.6,33L138,749.3z"/>
	<path id="path6572" inkscape:connector-curvature="0" sodipodi:nodetypes="cc" class="st7" d="M110.7,652.4
		c4.9,0.3,9.8,1.5,15.9-12.1"/>
	<path id="path6574" inkscape:connector-curvature="0" class="st8" d="M116.2,636.2c-0.1,0.2-0.3-0.1-0.4,0c0,0-0.1,0-0.1,0.1
		c0,0,0,0.3,0,0.4"/>
	<path id="path6614" inkscape:connector-curvature="0" sodipodi:nodetypes="ccccccccccccccccccc" class="st6" d="M165.8,749.3
		l4.1-40.9l-8.4,1l2.7-6.3c-32.4-19.6-25.6-28.3,8.9-42.8l-5.7-21.5c9.6-23.6,28.4-7.8,33.5,1.4l-6.3,1.9l-2.2,17.5
		c41.4,19.2,20.7,36.1,20.7,38.2l5.8,2.1c-4.7,6.4-7.2,6.8-9.5,6.8l-0.8-26.4c-0.6,19-0.1,38-2.3,57c5.4,8.9,6.8,7.5,10.1,11
		l-24.5,0.7l0.2-32.7l-0.6,33L165.8,749.3z"/>
	<path id="path6616" inkscape:connector-curvature="0" sodipodi:nodetypes="cc" class="st7" d="M193.1,652.4
		c-4.9,0.3-9.8,1.5-15.9-12.1"/>
	<path id="path6618" inkscape:connector-curvature="0" class="st8" d="M187.6,636.2c0.1,0.2,0.3-0.1,0.4,0c0,0,0.1,0,0.1,0.1
		c0,0,0,0.3,0,0.4"/>
	<path id="path6594" inkscape:connector-curvature="0" sodipodi:nodetypes="ccccccccccccccccccc" class="st6" d="M109.8,768.1
		l4.1-40.9l-8.4,1l2.7-6.3c-32.4-19.6-25.6-28.3,8.9-42.8l-5.7-21.5c9.6-23.6,28.4-7.8,33.5,1.4l-6.3,1.9l-2.2,17.5
		c41.4,19.2,20.7,36.1,20.7,38.2l5.8,2.1c-4.7,6.4-7.2,6.8-9.5,6.8l-0.8-26.4c-0.6,19-0.1,38-2.3,57c5.4,8.9,6.8,7.5,10.1,11
		l-24.5,0.7l0.2-32.7l-0.6,33L109.8,768.1z"/>
	<path id="path6596" inkscape:connector-curvature="0" sodipodi:nodetypes="cc" class="st7" d="M137.1,671.2
		c-4.9,0.3-9.8,1.5-15.9-12.1"/>
	<path id="path6598" inkscape:connector-curvature="0" class="st8" d="M131.6,655c0.1,0.2,0.3-0.1,0.4,0c0,0,0.1,0,0.1,0.1
		c0,0,0,0.3,0,0.4"/>
	<path id="path6636" inkscape:connector-curvature="0" sodipodi:nodetypes="cccccccccccccccc" class="st13" d="M258.9,696.3
		c9-11.8,11.8-24.1-19.7-37.6l1.9-13.2l4-1.4c-6.6-25.8-30.2-15-29.3-3.3l4.8,19c-34.3,11.5-44.1,24.1-11.4,39l-2.5,3.3
		c1.9,5.3,11.8,6.6,9-4.3l2.9,0.3c-5.1,17-4.5,32.1-6.8,48.1l40.5,1l3.1-55.3l1.2,12.3c4.1-0.5,2.9,0.7,8.6-5.4
		C265.9,697.7,264.9,696.9,258.9,696.3L258.9,696.3z"/>
	<path id="path6638" inkscape:connector-curvature="0" sodipodi:nodetypes="cc" class="st14" d="M227.7,644.2
		c3.2,4.1,6.3,7.8,12.9,7.8"/>
	<path id="path6640" inkscape:connector-curvature="0" class="st15" d="M236.8,639.6C236.7,639.6,236.7,639.5,236.8,639.6
		C236.7,639.5,236.7,639.5,236.8,639.6c0-0.1,0-0.1,0-0.1s0,0,0,0c0,0,0,0,0,0c0,0,0,0,0,0c0,0,0,0,0,0c0,0,0,0,0,0c0,0,0,0,0,0
		c0.1,0,0,0,0,0c0,0,0,0,0,0c0,0,0,0,0,0c0,0,0,0,0.1,0c0,0,0,0,0,0c0,0,0,0,0,0s0,0,0,0c0,0,0,0.1,0,0.1"/>
	<path id="path6642" inkscape:connector-curvature="0" class="st15" d="M238.4,713.9l-3.4,33.1"/>
	<path id="path6624" inkscape:connector-curvature="0" sodipodi:nodetypes="cccccccccccccccc" class="st13" d="M139.6,727.6
		c-9-11.8-11.8-24.1,19.7-37.6l-1.9-13.2l-4-1.4c6.6-25.8,30.2-15,29.3-3.3l-4.8,19c34.3,11.5,44.1,24.1,11.4,39l2.5,3.3
		c-1.9,5.3-11.8,6.6-9-4.3l-2.9,0.3c5.1,17,4.5,32.1,6.8,48.1l-40.5,1l-3.1-55.3l-1.2,12.3c-4.1-0.5-2.9,0.7-8.6-5.4
		C132.6,729.1,133.6,728.3,139.6,727.6z"/>
	<path id="path6626" inkscape:connector-curvature="0" sodipodi:nodetypes="cc" class="st14" d="M170.8,675.5
		c-3.2,4.1-6.3,7.8-12.9,7.8"/>
	<path id="path6628" inkscape:connector-curvature="0" class="st15" d="M161.7,670.9C161.8,670.9,161.8,670.9,161.7,670.9
		C161.8,670.9,161.8,670.9,161.7,670.9c0-0.1,0-0.1,0-0.1s0,0,0,0s0,0,0,0c0,0,0,0,0,0c0,0,0,0,0,0c0,0,0,0,0,0c0,0,0,0,0,0
		c-0.1,0,0,0,0,0c0,0,0,0,0,0c0,0,0,0,0,0c0,0,0,0-0.1,0c0,0,0,0,0,0s0,0,0,0s0,0,0,0c0,0,0,0.1,0,0.1"/>
	<path id="path6630" inkscape:connector-curvature="0" class="st15" d="M160.1,745.3l3.4,33.1"/>
	<path id="path6648" inkscape:connector-curvature="0" sodipodi:nodetypes="ccccccccccccccccccc" class="st6" d="M201.6,777.1
		l4.1-40.9l-8.4,1l2.7-6.3c-32.4-19.6-25.6-28.3,8.9-42.8l-5.7-21.5c9.6-23.6,28.4-7.8,33.5,1.4l-6.3,1.9l-2.2,17.5
		c41.4,19.2,20.7,36.1,20.7,38.2l5.8,2.1c-4.7,6.4-7.2,6.8-9.5,6.8l-0.8-26.4c-0.6,19-0.1,38-2.3,57c5.4,8.9,6.8,7.5,10.1,11
		l-24.5,0.7l0.2-32.7l-0.6,33L201.6,777.1z"/>
	<path id="path6650" inkscape:connector-curvature="0" sodipodi:nodetypes="cc" class="st7" d="M229,680.2
		c-4.9,0.3-9.8,1.5-15.9-12.1"/>
	<path id="path6652" inkscape:connector-curvature="0" class="st8" d="M223.5,664c0.1,0.2,0.3-0.1,0.4,0c0,0,0.1,0,0.1,0.1
		c0,0,0,0.3,0,0.4"/>
	<path id="path6689" inkscape:connector-curvature="0" sodipodi:nodetypes="cccccccccccccccc" class="st13" d="M270.8,720
		c-9-11.8-11.8-24.1,19.7-37.6l-1.9-13.2l-4-1.4c6.6-25.8,30.2-15,29.3-3.3l-4.8,19c34.3,11.5,44.1,24.1,11.4,39l2.5,3.3
		c-1.9,5.3-11.8,6.6-9-4.3l-2.9,0.3c5.1,17,4.5,32.1,6.8,48.1l-40.5,1l-3.1-55.3l-1.2,12.3c-4.1-0.5-2.9,0.7-8.6-5.4
		C263.9,721.5,264.9,720.7,270.8,720L270.8,720z"/>
	<path id="path6691" inkscape:connector-curvature="0" sodipodi:nodetypes="cc" class="st14" d="M302.1,667.9
		c-3.2,4.1-6.3,7.8-12.9,7.8"/>
	<path id="path6693" inkscape:connector-curvature="0" class="st15" d="M293,663.3C293,663.3,293,663.3,293,663.3
		C293,663.2,293,663.2,293,663.3c0-0.1,0-0.1,0-0.1s0,0,0,0c0,0,0,0,0,0s0,0,0,0c0,0,0,0,0,0c0,0,0,0,0,0c0,0,0,0,0,0
		c-0.1,0,0,0,0,0c0,0,0,0,0,0c0,0,0,0,0,0c0,0,0,0-0.1,0c0,0,0,0,0,0s0,0,0,0c0,0,0,0,0,0c0,0,0,0.1,0,0.1"/>
	<path id="path6695" inkscape:connector-curvature="0" class="st15" d="M291.4,737.7l3.4,33.1"/>
	<text transform="matrix(1 0 0 1 220.6445 471.7359)" class="st3 st16">AktivSymposiumMnchen</text>
	<text transform="matrix(1 0 0 1 288.625 501.7359)" class="st3 st16">2.-5. Juni 2017</text>
	<text transform="matrix(1 0 0 1 271.334 539.7428)" class="st3 st16">im CCC Mnchen</text>
	<text transform="matrix(1 0 0 1 358.9619 765.6803)" class="st3 st17">https://asm17.muc.ccc.de</text>
	<text transform="matrix(1 0 0 1 30.1719 810.5504)" class="st3 st18">V.i.S.d.P: Chaos Computer Club Mnchen e. V., Hestr. 90, D-80797 Mnchen </text>
</g>
</svg>
